<svg width="338" height="389" viewBox="0 0 338 389" fill="none" xmlns="http://www.w3.org/2000/svg">
<g clip-path="url(#clip0_115_10548)">
<path d="M338 291.746V97.2541L169.732 0L1.46405 97.2541V291.746L169.732 389L338 291.746Z" fill="#140A60" fill-opacity="0.2"/>
<path d="M168.597 55.6584L225.991 92.7586L256.473 171.899L232.588 215.586L299.293 241.143L337.177 290.61L168.597 389L0 290.61L37.8846 241.143L104.59 215.586L80.7041 171.899L111.186 92.7586L168.597 55.6584Z" fill="#140A60"/>
<path d="M236.108 216.936L249.268 233.107V273.089L285.705 245.012L299.918 280.515L304.244 258.252L337.178 290.61L299.293 241.143L236.108 216.936Z" fill="#234D9F"/>
<path d="M101.069 216.936L87.9093 233.107V273.089L51.4723 245.012L37.2595 280.515L32.9495 258.252L0 290.61L37.8846 241.143L101.069 216.936Z" fill="#234D9F"/>
<path d="M80.8851 337.804L112.009 300.918L137.325 337.804L168.597 290.61L199.852 337.804L225.169 300.918L256.292 337.804L168.597 389L80.8851 337.804Z" fill="#234D9F"/>
<path d="M168.597 122.218L214.049 133.976L243.083 172.92L185.031 253.773L216.533 241.554L232.588 215.586L256.473 171.899L225.991 92.7586L168.597 55.6584L111.186 92.7586L80.7042 171.899L104.59 215.586L120.645 241.554L152.147 253.773L94.0945 172.92L123.129 133.976L168.597 122.218Z" fill="#234D9F"/>
<path d="M155.638 196.831L118.51 180.686V171.746L155.638 155.676V166.205L129.74 176.105L155.638 186.376V196.831ZM159.073 203.924L172.484 147.918H180.279L166.721 203.924H159.073ZM183.752 196.868V186.413L209.686 176.216L183.752 166.131V155.75L220.917 171.82V180.686L183.752 196.868Z" fill="#FF3C00"/>
<path d="M31.1175 122.829H28.4241V112.678C27.4401 113.599 26.2803 114.279 24.9448 114.72V112.276C25.6477 112.046 26.4113 111.611 27.2356 110.972C28.0599 110.327 28.6254 109.576 28.9321 108.72H31.1175V122.829Z" fill="#F8F8F8"/>
<path d="M294.632 96.0865H291.938V85.9361C290.954 86.8562 289.794 87.5368 288.459 87.9777V85.5335C289.162 85.3035 289.925 84.8689 290.75 84.23C291.574 83.5846 292.139 82.8337 292.446 81.9775H294.632V96.0865Z" fill="#F8F8F8"/>
<path d="M69.8217 75.0613C71.1828 75.0613 72.2467 75.547 73.0135 76.5183C73.9273 77.6685 74.3842 79.5759 74.3842 82.2405C74.3842 84.8987 73.9241 86.8093 73.004 87.9723C72.2435 88.9308 71.1828 89.41 69.8217 89.41C68.4543 89.41 67.352 88.8861 66.5149 87.8381C65.6778 86.7838 65.2593 84.9083 65.2593 82.2117C65.2593 79.5663 65.7194 77.6621 66.6395 76.4991C67.3999 75.5406 68.4607 75.0613 69.8217 75.0613ZM69.8217 77.2946C69.4959 77.2946 69.2051 77.4001 68.9495 77.6109C68.6939 77.8154 68.4958 78.186 68.3552 78.7228C68.1699 79.4193 68.0773 80.5919 68.0773 82.2405C68.0773 83.8891 68.1604 85.0233 68.3265 85.6431C68.4926 86.2566 68.7003 86.6655 68.9495 86.87C69.2051 87.0745 69.4959 87.1767 69.8217 87.1767C70.1476 87.1767 70.4384 87.0745 70.694 86.87C70.9496 86.6592 71.1477 86.2853 71.2882 85.7486C71.4736 85.0585 71.5662 83.8891 71.5662 82.2405C71.5662 80.5919 71.4831 79.4608 71.317 78.8474C71.1509 78.2276 70.94 77.8154 70.6844 77.6109C70.4352 77.4001 70.1476 77.2946 69.8217 77.2946Z" fill="#F8F8F8"/>
<path d="M263.275 115.916C264.636 115.916 265.7 116.402 266.467 117.373C267.38 118.523 267.837 120.43 267.837 123.095C267.837 125.753 267.377 127.664 266.457 128.827C265.697 129.785 264.636 130.265 263.275 130.265C261.907 130.265 260.805 129.741 259.968 128.693C259.131 127.638 258.712 125.763 258.712 123.066C258.712 120.421 259.173 118.517 260.093 117.354C260.853 116.395 261.914 115.916 263.275 115.916ZM263.275 118.149C262.949 118.149 262.658 118.255 262.403 118.466C262.147 118.67 261.949 119.041 261.808 119.577C261.623 120.274 261.53 121.446 261.53 123.095C261.53 124.744 261.613 125.878 261.78 126.498C261.946 127.111 262.153 127.52 262.403 127.725C262.658 127.929 262.949 128.031 263.275 128.031C263.601 128.031 263.892 127.929 264.147 127.725C264.403 127.514 264.601 127.14 264.741 126.603C264.927 125.913 265.019 124.744 265.019 123.095C265.019 121.446 264.936 120.315 264.77 119.702C264.604 119.082 264.393 118.67 264.138 118.466C263.888 118.255 263.601 118.149 263.275 118.149Z" fill="#F8F8F8"/>
<path d="M321.204 154.741H317.981V142.594C316.804 143.695 315.416 144.51 313.818 145.037V142.112C314.659 141.837 315.572 141.317 316.559 140.552C317.545 139.78 318.222 138.882 318.589 137.857H321.204V154.741Z" fill="#F8F8F8"/>
<path d="M123.935 55.8068H120.712V43.6603C119.534 44.7614 118.146 45.5758 116.548 46.1034V43.1786C117.389 42.9033 118.303 42.3834 119.289 41.6187C120.276 40.8464 120.953 39.948 121.32 38.9233H123.935V55.8068Z" fill="#F8F8F8"/>
<path d="M51.4534 143.719C53.0821 143.719 54.3553 144.3 55.2729 145.463C56.3663 146.839 56.913 149.122 56.913 152.31C56.913 155.491 56.3625 157.777 55.2614 159.169C54.3515 160.316 53.0821 160.89 51.4534 160.89C49.8171 160.89 48.4981 160.263 47.4964 159.008C46.4947 157.747 45.9938 155.503 45.9938 152.276C45.9938 149.11 46.5444 146.831 47.6455 145.44C48.5554 144.293 49.8247 143.719 51.4534 143.719ZM51.4534 146.392C51.0635 146.392 50.7155 146.518 50.4097 146.77C50.1038 147.015 49.8668 147.458 49.6986 148.101C49.4768 148.934 49.3659 150.337 49.3659 152.31C49.3659 154.283 49.4653 155.64 49.6642 156.382C49.863 157.116 50.1115 157.605 50.4097 157.85C50.7155 158.095 51.0635 158.217 51.4534 158.217C51.8434 158.217 52.1913 158.095 52.4972 157.85C52.803 157.598 53.0401 157.15 53.2083 156.508C53.43 155.682 53.5409 154.283 53.5409 152.31C53.5409 150.337 53.4415 148.984 53.2427 148.25C53.0439 147.508 52.7916 147.015 52.4857 146.77C52.1875 146.518 51.8434 146.392 51.4534 146.392Z" fill="#F8F8F8"/>
<path d="M218.192 39.3185C219.82 39.3185 221.093 39.8997 222.011 41.0619C223.104 42.4383 223.651 44.7208 223.651 47.9094C223.651 51.0903 223.101 53.3766 222 54.7682C221.09 55.9152 219.82 56.4887 218.192 56.4887C216.555 56.4887 215.236 55.8617 214.235 54.6077C213.233 53.346 212.732 51.1018 212.732 47.8749C212.732 44.7093 213.283 42.4306 214.384 41.039C215.294 39.892 216.563 39.3185 218.192 39.3185ZM218.192 41.991C217.802 41.991 217.454 42.1171 217.148 42.3695C216.842 42.6142 216.605 43.0577 216.437 43.7C216.215 44.5334 216.104 45.9366 216.104 47.9094C216.104 49.8821 216.204 51.2394 216.402 51.9811C216.601 52.7152 216.85 53.2045 217.148 53.4492C217.454 53.6939 217.802 53.8163 218.192 53.8163C218.582 53.8163 218.929 53.6939 219.235 53.4492C219.541 53.1969 219.778 52.7496 219.946 52.1073C220.168 51.2815 220.279 49.8821 220.279 47.9094C220.279 45.9366 220.18 44.5831 219.981 43.8491C219.782 43.1074 219.53 42.6142 219.224 42.3695C218.926 42.1171 218.582 41.991 218.192 41.991Z" fill="#F8F8F8"/>
<path d="M32.3802 198.194H27.8702V181.197C26.2224 182.738 24.2804 183.878 22.0441 184.616V180.523C23.2211 180.138 24.4997 179.41 25.88 178.34C27.2603 177.26 28.2072 176.002 28.7208 174.569H32.3802V198.194Z" fill="#F8F8F8"/>
<path d="M275.939 169.184C278.218 169.184 280 169.997 281.284 171.624C282.814 173.55 283.579 176.743 283.579 181.205C283.579 185.656 282.808 188.856 281.268 190.803C279.994 192.408 278.218 193.211 275.939 193.211C273.649 193.211 271.804 192.333 270.402 190.578C269 188.813 268.299 185.672 268.299 181.157C268.299 176.727 269.07 173.539 270.611 171.591C271.884 169.986 273.66 169.184 275.939 169.184ZM275.939 172.924C275.393 172.924 274.907 173.1 274.479 173.453C274.051 173.796 273.719 174.416 273.484 175.315C273.173 176.481 273.018 178.445 273.018 181.205C273.018 183.966 273.157 185.865 273.435 186.903C273.714 187.93 274.061 188.615 274.479 188.957C274.907 189.3 275.393 189.471 275.939 189.471C276.485 189.471 276.972 189.3 277.4 188.957C277.828 188.604 278.159 187.978 278.395 187.079C278.705 185.924 278.86 183.966 278.86 181.205C278.86 178.445 278.721 176.551 278.443 175.524C278.165 174.486 277.812 173.796 277.384 173.453C276.966 173.1 276.485 172.924 275.939 172.924Z" fill="#F8F8F8"/>
</g>
<defs>
<clipPath id="clip0_115_10548">
<rect width="338" height="389" fill="white"/>
</clipPath>
</defs>
</svg>
