<?xml version="1.0" standalone="no"?>
<!DOCTYPE svg PUBLIC "-//W3C//DTD SVG 20010904//EN"
 "http://www.w3.org/TR/2001/REC-SVG-20010904/DTD/svg10.dtd">
<svg version="1.0" xmlns="http://www.w3.org/2000/svg"
 width="900.000000pt" height="936.000000pt" viewBox="0 0 900.000000 936.000000"
 preserveAspectRatio="xMidYMid meet">
<metadata>
Created by potrace 1.10, written by Peter Selinger 2001-2011
</metadata>
<g transform="translate(0.000000,936.000000) scale(0.100000,-0.100000)"
fill="#000000" stroke="none">
<path d="M98 9296 c-99 -106 -99 -107 -96 -183 3 -56 5 -63 11 -38 15 54 41
96 89 143 52 53 74 72 84 72 3 0 20 6 37 14 18 7 58 18 91 24 53 11 81 7 105
-14 2 -2 -16 -25 -39 -51 -38 -43 -41 -52 -37 -87 4 -27 16 -50 41 -75 l36
-35 497 -1 c378 0 513 -4 560 -14 48 -10 75 -11 126 -2 35 6 171 11 303 12
330 0 431 9 471 39 18 12 36 35 42 49 25 67 25 70 -22 117 l-45 45 26 12 c20
8 867 10 3325 8 2941 -2 3297 -1 3297 13 0 13 -476 15 -4423 14 l-4422 -1 -57
-61z m2264 -93 c1 -31 -1 -61 -7 -67 -7 -8 -282 -10 -975 -6 l-965 5 -3 49
c-2 27 -1 55 2 62 5 12 161 14 975 14 l969 0 4 -57z"/>
<path d="M135 9059 c-33 -19 -86 -72 -101 -101 -21 -41 -17 -87 13 -147 l27
-53 -27 -49 c-36 -65 -36 -125 0 -186 l27 -46 -27 -47 c-36 -63 -36 -130 -2
-185 31 -51 31 -65 -1 -112 -23 -34 -25 -45 -21 -100 3 -42 11 -70 26 -89 27
-34 27 -40 -6 -86 -36 -52 -35 -108 2 -184 l28 -57 -26 -48 c-37 -64 -37 -139
-2 -185 31 -41 31 -52 0 -94 -21 -28 -25 -45 -25 -101 0 -57 4 -72 25 -97 31
-36 32 -59 4 -88 -16 -17 -23 -40 -26 -88 -5 -60 -3 -69 21 -100 32 -42 32
-59 4 -98 -44 -62 -41 -158 6 -198 22 -17 20 -46 -5 -79 -14 -20 -23 -49 -26
-92 -4 -59 -2 -68 27 -111 l32 -48 -26 -31 c-14 -17 -29 -42 -32 -55 -11 -44
2 -120 24 -149 28 -36 28 -54 -4 -100 -22 -33 -25 -45 -20 -101 3 -44 11 -72
25 -90 26 -33 27 -58 3 -82 -24 -24 -42 -107 -32 -143 5 -16 18 -41 29 -55 27
-34 27 -62 0 -90 -15 -16 -23 -40 -26 -86 -4 -56 -2 -67 21 -101 32 -46 32
-60 3 -100 -18 -26 -22 -45 -22 -104 0 -62 3 -75 22 -93 29 -26 29 -60 1 -95
-15 -20 -23 -46 -26 -87 -4 -51 -1 -64 19 -91 26 -36 27 -82 1 -110 -27 -30
-24 -144 5 -181 29 -36 29 -71 1 -90 -18 -13 -23 -28 -26 -82 -4 -56 -1 -72
22 -114 32 -59 32 -63 1 -104 -38 -50 -33 -150 10 -192 21 -22 19 -57 -8 -90
-18 -24 -22 -41 -22 -100 0 -61 3 -76 22 -96 29 -30 28 -43 -2 -93 -35 -56
-34 -127 1 -178 29 -43 27 -74 -8 -109 -19 -19 -20 -28 -15 -97 4 -52 11 -79
21 -87 19 -14 21 -71 3 -93 -43 -52 -40 -136 7 -191 22 -27 24 -34 14 -58 -7
-15 -18 -35 -26 -44 -8 -9 -16 -45 -19 -80 -4 -56 -2 -67 21 -101 32 -47 32
-57 0 -109 -36 -56 -33 -136 7 -187 25 -31 24 -63 -2 -87 -32 -29 -38 -54 -27
-117 9 -51 15 -62 62 -103 51 -45 52 -45 113 -42 72 4 109 26 135 79 24 48 22
126 -3 184 -21 47 -21 49 -4 84 33 66 35 119 9 189 l-24 63 20 39 c26 51 26
130 0 198 -19 50 -19 54 -3 85 29 55 33 116 12 172 -22 59 -23 91 -4 125 21
36 18 130 -4 188 -20 49 -20 50 0 86 27 51 26 146 -2 196 l-21 38 26 66 c28
69 28 80 -2 173 -15 50 -15 56 2 102 23 64 23 121 0 187 -16 48 -17 58 -4 87
24 56 25 159 1 211 l-20 46 23 50 c20 43 22 57 15 110 -5 33 -16 74 -24 90
-14 26 -13 33 6 77 29 66 29 128 1 190 l-24 50 21 41 c29 57 29 150 0 202
l-22 39 22 45 c26 56 27 130 4 197 -17 46 -16 50 1 100 24 65 22 126 -5 189
l-21 48 21 41 c28 53 28 138 1 191 l-20 39 20 51 c26 65 25 142 -1 200 l-20
44 24 56 c29 65 28 121 -1 180 -19 38 -19 40 -1 92 24 70 24 144 -1 201 l-20
46 21 41 c18 34 21 53 17 109 -3 40 -12 78 -23 94 -17 26 -17 29 5 81 25 63
24 143 -3 211 -14 36 -14 42 0 64 9 14 18 55 21 92 4 55 1 75 -16 107 -20 38
-20 39 -1 92 24 70 24 146 0 201 -18 40 -18 46 -4 79 31 71 34 117 13 178 -24
69 -25 95 -4 128 24 36 21 131 -6 185 l-22 42 22 48 c27 56 29 142 6 187 -21
40 -20 68 3 106 28 46 34 124 13 162 -31 57 -78 88 -141 91 -31 2 -65 -2 -76
-8z m93 -69 l62 0 0 -90 0 -90 -90 0 c-49 0 -91 3 -91 8 -1 4 -3 43 -5 87 -3
84 4 99 41 90 11 -2 48 -5 83 -5z m60 -373 l3 -88 -93 3 -93 3 -1 70 c-2 106
-7 100 93 100 l88 -1 3 -87z m2 -287 l0 -91 -92 3 -93 3 -1 80 c-1 44 0 83 3
88 2 4 44 7 94 7 l89 0 0 -90z m-2 -282 l-3 -83 -90 0 -90 0 -1 75 c-1 41 1
78 3 83 2 4 45 7 94 7 l90 0 -3 -82z m2 -288 l0 -91 -92 3 -93 3 -1 80 c-1 44
0 83 3 88 2 4 44 7 94 7 l89 0 0 -90z m-69 -200 l69 0 0 -85 0 -86 -92 3 -93
3 -1 75 c-1 77 9 105 33 95 8 -3 46 -5 84 -5z m69 -370 l0 -91 -92 3 -93 3 -1
80 c-1 44 1 83 3 88 2 4 44 7 94 7 l89 0 0 -90z m0 -285 l0 -86 -92 3 -93 3
-1 75 c-1 41 1 78 3 83 2 4 44 7 94 7 l89 0 0 -85z m0 -285 l0 -91 -92 3 -93
3 -1 80 c-1 44 0 83 3 88 2 4 44 7 94 7 l89 0 0 -90z m0 -285 l0 -86 -92 3
-93 3 -1 75 c-1 41 1 78 3 83 2 4 44 7 94 7 l89 0 0 -85z m0 -285 l0 -91 -92
3 -93 3 -1 80 c-1 44 0 83 3 88 2 4 44 7 94 7 l89 0 0 -90z m0 -285 l0 -86
-92 3 -93 3 -1 75 c-1 41 1 78 3 83 2 4 44 7 94 7 l89 0 0 -85z m0 -285 l0
-91 -92 3 -93 3 -1 80 c-1 44 0 83 3 88 2 4 44 7 94 7 l89 0 0 -90z m0 -284
l0 -84 -82 -4 c-46 -2 -87 0 -93 5 -9 8 -16 144 -8 160 2 4 44 7 94 7 l89 0 0
-84z m0 -286 l0 -91 -92 3 -93 3 -1 80 c-1 44 0 83 3 88 2 4 44 7 94 7 l89 0
0 -90z m-2 -287 l3 -81 -83 -4 c-46 -2 -87 0 -93 5 -10 8 -16 144 -8 160 3 4
44 6 91 5 l87 -3 3 -82z m2 -283 l0 -91 -92 3 -93 3 -1 80 c-1 44 0 83 3 88 2
4 44 7 94 7 l89 0 0 -90z m-2 -287 l-3 -87 -87 -1 c-49 0 -89 2 -89 5 -4 14
-6 156 -2 163 2 4 45 7 94 7 l90 0 -3 -87z m2 -282 l0 -90 -86 -3 c-49 -2 -89
1 -93 7 -7 8 -8 132 -2 168 0 4 42 7 91 7 l90 0 0 -89z m-5 -291 l0 -85 -87
-1 c-49 0 -89 2 -89 5 -4 16 -6 157 -2 164 3 4 44 6 91 5 l87 -3 0 -85z m3
-283 l3 -88 -93 3 -93 3 -1 70 c-2 110 -6 106 94 103 l87 -3 3 -88z m-3 -287
l0 -85 -87 -1 c-49 -1 -89 1 -89 5 -4 17 -6 157 -2 164 3 4 44 6 91 5 l87 -3
0 -85z m5 -281 c0 -49 -3 -89 -7 -89 -64 -4 -162 -2 -170 3 -8 5 -11 133 -4
169 0 4 42 7 91 7 l90 0 0 -90z m-5 -289 l0 -85 -87 -2 c-49 -1 -89 1 -89 5
-4 19 -6 158 -3 163 2 4 43 6 91 5 l88 -1 0 -85z m3 -282 l3 -86 -83 -4 c-46
-2 -88 0 -94 4 -11 8 -17 125 -8 160 4 14 18 16 92 15 l87 -2 3 -87z m0 -290
c2 -56 -1 -88 -8 -89 -50 -3 -159 -1 -167 4 -10 6 -15 153 -7 168 2 4 43 6 91
5 l88 -1 3 -87z"/>
<path d="M537 9022 c-22 -4 -28 -29 -19 -87 l7 -50 245 3 c134 1 246 5 249 7
2 3 -79 5 -181 5 -200 0 -248 5 -248 26 0 7 12 20 28 28 21 11 92 14 342 14
330 1 400 -6 400 -39 0 -23 -20 -29 -103 -30 l-72 -2 60 -7 c55 -8 142 -13
173 -11 8 1 12 22 12 71 l0 70 -438 2 c-241 2 -446 2 -455 0z"/>
<path d="M1678 9022 c-23 -4 -27 -21 -20 -83 l7 -54 358 0 c198 0 361 3 364 8
2 4 -56 7 -129 7 -341 2 -517 6 -524 12 -4 5 1 17 11 28 19 21 10 20 290 21
61 1 119 0 130 -1 59 -4 216 4 221 11 17 28 124 -12 124 -46 0 -14 -30 -25
-69 -25 -16 0 -21 -4 -15 -9 7 -8 86 -15 132 -12 10 1 12 19 10 69 l-3 67
-400 2 c-220 2 -416 4 -435 5 -20 2 -43 2 -52 0z"/>
<path d="M2803 9002 c-3 -7 -2 -37 2 -67 6 -51 13 -61 39 -56 6 1 72 3 148 5
146 2 202 15 77 17 -210 4 -194 2 -197 26 -7 46 24 50 402 48 331 -1 349 -2
363 -20 18 -26 13 -50 -12 -51 -11 -1 -119 -2 -239 -3 -121 -1 -216 -4 -212
-8 4 -4 116 -8 249 -9 133 -1 247 -3 252 -4 30 -7 35 2 35 68 l0 67 -451 0
c-355 0 -453 -3 -456 -13z"/>
<path d="M3945 9002 c-8 -22 7 -122 19 -123 60 -3 193 4 201 12 5 5 -15 9 -56
9 -76 0 -111 18 -93 46 6 10 21 20 35 24 13 3 170 5 349 5 348 -1 385 -6 385
-50 0 -22 3 -21 -143 -24 -46 -1 -71 -5 -67 -11 4 -6 61 -10 139 -10 l133 0 5
51 c9 92 54 84 -452 84 -365 0 -451 -3 -455 -13z"/>
<path d="M5088 9001 c-2 -7 -1 -37 0 -66 l4 -53 83 -1 c46 0 96 4 112 9 24 7
21 9 -27 11 -30 1 -67 1 -83 0 -17 -2 -29 4 -33 14 -11 29 19 45 102 54 99 11
608 6 649 -6 23 -7 30 -15 30 -34 0 -21 -4 -24 -40 -24 -159 -2 -208 -6 -199
-14 7 -8 207 -15 290 -12 12 1 27 101 19 123 -8 20 -903 19 -907 -1z"/>
<path d="M6230 9000 c-4 -8 -5 -39 -3 -67 l6 -53 88 0 c48 0 91 5 94 10 4 6
-16 10 -53 10 -71 0 -92 16 -65 48 17 21 46 25 168 23 11 0 130 1 265 2 254 3
325 -5 344 -36 12 -19 -6 -38 -34 -36 -66 5 -222 -3 -214 -10 9 -10 290 -18
300 -9 8 9 13 113 6 123 -4 6 -181 10 -450 10 -385 0 -445 -2 -452 -15z"/>
<path d="M7374 9011 c-2 -2 -4 -33 -4 -68 l0 -63 204 0 c126 0 207 4 211 10 4
6 -46 11 -142 11 -162 2 -212 5 -220 12 -3 3 -2 14 1 25 10 32 117 40 446 36
296 -3 340 -9 340 -40 0 -26 -42 -36 -143 -34 -133 2 -139 2 -132 -10 3 -5 64
-9 144 -8 75 0 147 -3 159 -6 28 -9 40 15 38 83 l-1 53 -448 2 c-247 0 -451
-1 -453 -3z"/>
<path d="M1070 8890 c25 -4 52 -4 60 1 9 5 -8 8 -45 7 l-60 -1 45 -7z"/>
<path d="M4185 8890 c3 -5 26 -10 50 -10 24 0 47 5 50 10 4 6 -15 10 -50 10
-35 0 -54 -4 -50 -10z"/>
<path d="M4305 8890 c3 -5 26 -10 50 -10 24 0 47 5 50 10 4 6 -15 10 -50 10
-35 0 -54 -4 -50 -10z"/>
<path d="M4455 8890 c3 -5 26 -10 50 -10 24 0 47 5 50 10 4 6 -15 10 -50 10
-35 0 -54 -4 -50 -10z"/>
<path d="M5368 8893 c12 -2 32 -2 45 0 12 2 2 4 -23 4 -25 0 -35 -2 -22 -4z"/>
<path d="M5483 8893 c9 -2 25 -2 35 0 9 3 1 5 -18 5 -19 0 -27 -2 -17 -5z"/>
<path d="M5619 8888 c23 -6 37 -6 44 1 8 8 -2 11 -33 10 l-45 -1 34 -10z"/>
<path d="M6435 8890 c4 -6 77 -10 185 -10 108 0 181 4 185 10 4 7 -60 10 -185
10 -125 0 -189 -3 -185 -10z"/>
<path d="M7843 8889 c12 -7 27 -7 45 0 25 9 24 9 -18 10 -36 0 -41 -2 -27 -10z"/>
<path d="M437 4435 l3 -4375 4277 0 c2352 0 4279 2 4281 5 3 3 2 8 -2 13 -4 4
-1915 7 -4246 7 -4057 0 -4240 1 -4257 18 -17 17 -18 202 -17 4322 0 4070 1
4305 18 4324 9 10 30 21 47 25 16 3 29 9 29 14 0 8 -76 22 -120 22 -13 0 -15
-492 -13 -4375z"/>
<path d="M3758 8802 c-43 -1 -78 -6 -78 -11 0 -11 163 -21 232 -14 120 12 2
32 -154 25z"/>
<path d="M8365 8803 c-66 -2 -123 -7 -128 -12 -17 -17 171 -23 631 -22 125 1
132 2 132 21 0 20 -6 20 -257 18 -142 -1 -312 -4 -378 -5z"/>
<path d="M1400 8791 c0 -4 30 -11 67 -15 80 -8 260 3 241 15 -17 11 -308 12
-308 0z"/>
<path d="M2520 8792 c0 -12 190 -23 246 -15 89 12 40 23 -101 23 -80 0 -145
-4 -145 -8z"/>
<path d="M2870 8790 c0 -5 9 -10 21 -10 11 0 17 5 14 10 -3 6 -13 10 -21 10
-8 0 -14 -4 -14 -10z"/>
<path d="M4845 8790 c-6 -10 14 -12 130 -12 123 0 146 2 140 12 -4 6 -60 10
-135 10 -75 0 -131 -4 -135 -10z"/>
<path d="M5785 8790 c-3 -5 3 -10 15 -10 12 0 18 5 15 10 -3 6 -10 10 -15 10
-5 0 -12 -4 -15 -10z"/>
<path d="M5980 8790 c0 -5 17 -11 38 -12 20 0 53 -2 72 -3 58 -4 170 7 170 16
0 5 -63 9 -140 9 -87 0 -140 -4 -140 -10z"/>
<path d="M7125 8790 c-7 -11 2 -12 110 -12 149 0 176 2 170 12 -4 6 -62 10
-140 10 -78 0 -136 -4 -140 -10z"/>
<path d="M803 8430 c-78 -3 -127 -9 -135 -17 -10 -10 134 -13 719 -13 640 0
732 -2 737 -15 7 -19 26 -20 26 -1 0 8 -19 22 -42 30 -37 14 -118 17 -613 19
-313 1 -625 0 -692 -3z"/>
<path d="M610 8378 c-44 -47 -67 -136 -40 -153 6 -4 10 11 10 38 0 27 6 49 15
57 8 7 15 17 15 22 0 5 10 18 22 27 14 12 17 20 10 25 -6 3 -20 -4 -32 -16z"/>
<path d="M2160 8358 c0 -18 18 -34 28 -24 3 4 -2 14 -11 23 -16 16 -17 16 -17
1z"/>
<path d="M2190 8270 c0 -32 4 -49 10 -45 6 3 10 24 10 45 0 21 -4 42 -10 45
-6 4 -10 -13 -10 -45z"/>
<path d="M580 8202 c0 -10 36 -51 62 -71 20 -15 207 -40 214 -29 3 5 20 6 37
3 18 -3 261 -7 541 -9 574 -2 651 3 711 48 37 29 52 52 41 63 -3 4 -21 -10
-39 -30 l-33 -37 -727 -1 -728 0 -24 23 c-14 13 -25 29 -25 36 0 6 -7 12 -15
12 -8 0 -15 -4 -15 -8z"/>
<path d="M1516 8010 c-242 -3 -350 -8 -353 -16 -2 -7 21 -13 64 -17 80 -7
1324 1 1331 8 3 3 3 7 1 9 -2 2 -157 7 -343 10 -187 4 -342 8 -345 9 -3 1
-163 0 -355 -3z"/>
<path d="M2570 7971 c0 -5 15 -19 34 -30 18 -12 36 -31 39 -42 3 -12 10 -18
16 -14 13 8 3 29 -34 68 -25 26 -55 36 -55 18z"/>
<path d="M1089 7957 c-27 -21 -49 -78 -49 -129 0 -26 5 -48 10 -48 6 0 10 24
10 54 0 46 4 59 29 85 16 17 34 31 39 31 6 0 14 5 17 10 9 14 -37 12 -56 -3z"/>
<path d="M2638 7764 c-7 -16 -26 -35 -41 -42 -15 -7 -27 -17 -27 -22 0 -5
-296 -9 -667 -9 -368 0 -688 0 -713 -1 -35 0 -41 -3 -32 -12 16 -16 32 -16
775 -17 l608 -2 38 23 c51 31 97 86 83 100 -7 7 -14 1 -24 -18z"/>
<path d="M1060 7752 c0 -17 49 -54 67 -49 15 3 13 6 -9 15 -16 6 -28 18 -28
27 0 8 -7 15 -15 15 -8 0 -15 -4 -15 -8z"/>
<path d="M1211 7564 c-79 -10 -86 -13 -119 -49 -22 -24 -31 -40 -24 -43 7 -2
24 10 39 27 l27 31 1484 0 c1309 0 1483 -2 1488 -15 4 -8 12 -15 19 -15 7 0
15 -9 18 -20 5 -21 27 -28 27 -9 0 27 -65 78 -111 88 -29 6 -347 10 -845 11
-440 0 -963 0 -1164 1 -201 0 -367 -1 -370 -2 -18 -7 -97 -4 -107 3 -7 6 -20
5 -33 -2 -12 -6 -35 -8 -58 -4 -57 11 -178 10 -271 -2z"/>
<path d="M1041 7441 c-11 -20 -3 -91 10 -91 5 0 9 25 9 55 0 59 -4 66 -19 36z"/>
<path d="M4170 7400 c0 -27 5 -50 10 -50 6 0 10 23 10 50 0 28 -4 50 -10 50
-5 0 -10 -22 -10 -50z"/>
<path d="M1066 7332 c-9 -15 30 -58 71 -78 36 -18 78 -19 833 -21 973 -3 1393
-3 1790 0 280 2 308 4 335 21 39 24 76 66 69 77 -7 13 -24 1 -24 -17 0 -8 -6
-14 -14 -14 -8 0 -16 -7 -20 -15 -5 -13 -180 -15 -1496 -15 -933 0 -1490 4
-1490 9 0 16 -48 63 -54 53z"/>
<path d="M1740 7140 c-463 -4 -580 -8 -600 -19 -53 -29 -95 -81 -66 -81 8 0
18 9 21 20 3 11 12 20 19 20 8 0 19 6 26 14 18 22 3122 23 3140 1 7 -8 17 -15
22 -15 15 0 47 -43 48 -62 0 -20 19 -35 21 -16 3 29 -4 45 -34 74 -50 49 -69
54 -204 60 -172 8 -1678 10 -2393 4z"/>
<path d="M1047 7023 c-11 -10 -8 -101 3 -108 6 -4 10 17 10 54 0 62 -1 66 -13
54z"/>
<path d="M4356 6943 c-9 -10 -7 -53 3 -53 11 0 21 49 11 55 -4 2 -10 2 -14 -2z"/>
<path d="M1070 6876 c0 -8 24 -29 53 -48 l52 -33 1525 0 c1487 0 1527 0 1570
19 68 30 104 66 65 66 -8 0 -15 -5 -15 -10 0 -6 -11 -15 -25 -20 -14 -5 -25
-13 -25 -17 0 -5 -700 -8 -1555 -8 -1235 0 -1556 3 -1560 13 -2 6 -13 12 -24
12 -11 0 -25 9 -31 20 -12 23 -30 27 -30 6z"/>
<path d="M3026 6712 c-2 -1 -417 -2 -924 -2 -584 0 -923 -4 -927 -10 -3 -6
-13 -10 -21 -10 -8 0 -31 -15 -49 -34 -34 -32 -45 -56 -25 -56 6 0 10 5 10 10
0 6 10 20 23 33 l22 22 1095 2 c602 1 1113 3 1135 3 56 2 106 -10 112 -26 3
-8 11 -14 19 -14 8 0 14 -7 14 -15 0 -9 7 -18 15 -21 8 -4 15 -19 15 -34 0
-16 5 -32 10 -35 17 -10 11 44 -7 73 -36 55 -76 92 -100 92 -13 0 -32 4 -42 9
-15 8 -368 21 -375 13z"/>
<path d="M1040 6534 c0 -31 6 -61 13 -68 6 -8 19 -23 27 -35 24 -35 70 -58
131 -65 97 -12 2191 -4 2228 8 49 16 116 96 81 96 -5 0 -10 -5 -10 -11 0 -7
-11 -22 -26 -35 l-25 -24 -1163 0 c-1025 0 -1165 2 -1170 15 -3 8 -12 15 -21
15 -8 0 -15 7 -15 15 0 9 -7 18 -15 21 -11 5 -15 22 -15 65 0 33 -4 59 -10 59
-5 0 -10 -25 -10 -56z"/>
<path d="M1230 6272 c-61 -6 -90 -14 -90 -22 0 -6 262 -10 701 -10 l700 0 35
-26 c19 -15 34 -32 34 -40 0 -19 17 -26 24 -9 6 17 -40 75 -60 75 -8 0 -14 4
-14 9 0 5 -24 13 -52 17 -48 7 -1217 13 -1278 6z"/>
<path d="M1091 6216 c-13 -14 -21 -31 -19 -38 3 -9 9 -5 17 10 6 12 18 22 26
22 8 0 15 7 15 15 0 22 -13 19 -39 -9z"/>
<path d="M1047 6163 c-11 -10 -8 -111 3 -118 6 -4 10 18 10 59 0 66 -1 72 -13
59z"/>
<path d="M2640 6110 c0 -18 4 -29 10 -25 6 3 10 15 10 25 0 10 -4 22 -10 25
-6 4 -10 -7 -10 -25z"/>
<path d="M2599 6015 c-13 -19 -33 -36 -43 -37 -11 -2 -21 -9 -24 -15 -5 -18
35 -17 45 1 4 7 18 18 29 24 22 12 38 48 24 57 -4 3 -18 -11 -31 -30z"/>
<path d="M1070 6018 c0 -9 6 -21 13 -25 8 -4 16 -16 20 -25 4 -10 17 -18 30
-18 13 0 29 -6 35 -12 13 -13 73 -14 974 -10 202 1 359 6 363 11 3 5 -7 12
-22 14 -16 3 -319 4 -675 4 -510 -2 -649 1 -653 11 -2 6 -13 12 -24 12 -11 0
-29 12 -40 28 -15 20 -20 23 -21 10z"/>
<path d="M730 5829 c-76 -14 -90 -19 -90 -29 0 -14 43 -13 57 1 14 14 1052 14
1067 -1 6 -6 19 -10 29 -10 20 0 59 -42 67 -73 6 -23 24 -23 28 0 2 16 -11 34
-66 84 -9 9 -30 20 -47 25 -41 11 -989 14 -1045 3z"/>
<path d="M597 5762 c-17 -19 -23 -42 -11 -42 7 0 54 48 54 56 0 11 -29 2 -43
-14z"/>
<path d="M560 5675 c0 -49 32 -108 77 -142 l36 -28 511 -3 c281 -2 535 0 564
3 47 6 60 13 98 53 45 47 55 72 29 72 -8 0 -15 -9 -15 -19 0 -11 -18 -33 -39
-50 l-39 -31 -550 0 -551 0 -35 23 c-19 12 -35 29 -36 38 0 9 -7 22 -15 29 -9
7 -15 29 -15 51 0 22 -4 39 -10 39 -5 0 -10 -16 -10 -35z"/>
<path d="M1696 5092 c-2 -1 -196 -2 -432 -2 -236 0 -458 -3 -494 -7 l-65 -7
50 -7 c28 -4 475 -8 994 -8 878 -1 1010 2 950 23 -14 6 -998 13 -1003 8z"/>
<path d="M623 5031 c-21 -21 -44 -46 -50 -54 -15 -19 -17 -97 -3 -97 6 0 10
14 10 31 0 32 34 99 51 99 5 0 9 6 9 14 0 8 10 16 22 18 25 4 37 28 14 28 -9
0 -33 -17 -53 -39z"/>
<path d="M2750 5055 c0 -9 9 -15 25 -15 28 0 34 15 9 24 -25 10 -34 7 -34 -9z"/>
<path d="M2816 5015 c4 -8 10 -15 15 -15 5 0 9 7 9 15 0 8 -7 15 -15 15 -9 0
-12 -6 -9 -15z"/>
<path d="M2850 4921 c0 -49 -4 -64 -22 -83 -56 -57 27 -53 -1117 -58 -885 -4
-1051 -7 -1026 -18 24 -11 225 -13 1025 -14 547 0 1006 0 1020 1 29 1 58 20
105 68 34 33 51 92 39 138 -11 45 -24 26 -24 -34z"/>
<path d="M585 4860 c-10 -16 30 -70 52 -70 20 0 15 18 -7 25 -11 3 -20 15 -20
25 0 22 -16 35 -25 20z"/>
<path d="M1315 4649 c-66 -6 -125 -32 -125 -55 0 -20 17 -17 37 6 17 20 30 20
1070 20 l1052 0 36 -35 c19 -20 35 -43 35 -53 0 -9 4 -23 9 -30 6 -11 9 -9 13
5 7 25 -5 53 -34 83 -59 59 -62 60 -218 61 -476 5 -1825 3 -1875 -2z"/>
<path d="M1162 4558 c-17 -17 -15 -38 3 -38 9 0 15 9 15 25 0 29 -1 30 -18 13z"/>
<path d="M3427 4464 c-4 -4 -7 -20 -7 -36 0 -18 -5 -28 -14 -28 -8 0 -18 -9
-21 -20 -4 -13 -15 -20 -32 -20 -14 0 -31 -6 -37 -13 -8 -9 -43 -11 -141 -7
-213 8 -1817 4 -1855 -5 l-35 -8 30 -8 c17 -5 466 -9 999 -9 859 0 974 2 1017
16 27 9 49 20 49 24 0 5 8 11 18 14 21 7 57 85 44 98 -4 4 -11 5 -15 2z"/>
<path d="M1160 4433 c0 -12 5 -25 10 -28 13 -8 13 15 0 35 -8 12 -10 11 -10
-7z"/>
<path d="M1190 4384 c0 -25 38 -47 71 -42 23 4 23 5 -6 13 -16 4 -37 18 -47
29 l-17 21 -1 -21z"/>
<path d="M1846 4223 c-74 -8 -163 -93 -146 -138 7 -18 9 -17 15 10 8 33 35 63
74 83 34 17 1916 21 1934 3 6 -6 17 -11 25 -11 8 0 26 -12 40 -27 21 -23 25
-37 25 -94 0 -54 -4 -70 -22 -88 -11 -11 -26 -21 -31 -21 -6 0 -13 -7 -16 -15
-5 -12 -134 -14 -980 -14 -536 0 -974 4 -974 8 0 5 -16 19 -35 32 -19 13 -36
33 -37 43 -2 11 -9 21 -17 24 -16 5 -6 -35 15 -56 8 -7 14 -18 14 -23 0 -6 14
-15 30 -20 17 -6 30 -15 30 -19 0 -5 24 -11 53 -15 37 -4 1145 -15 1402 -14
170 1 414 8 448 13 35 5 56 17 93 53 l49 46 -3 70 c-3 68 -4 72 -42 108 -22
21 -57 43 -77 50 -27 8 -289 12 -933 14 -492 1 -913 0 -934 -2z"/>
<path d="M3656 3793 c-4 -4 -264 -8 -579 -8 -421 -1 -578 -4 -593 -13 -31 -17
-79 -75 -65 -80 6 -2 23 10 38 27 l27 31 903 0 c552 0 903 4 903 9 0 20 -54
24 -326 26 -154 1 -285 4 -291 8 -5 4 -13 3 -17 0z"/>
<path d="M4306 3742 c-3 -6 5 -19 19 -30 14 -11 25 -29 25 -40 0 -12 5 -24 10
-27 6 -3 10 4 10 17 -1 28 -54 96 -64 80z"/>
<path d="M2388 3650 c-8 -54 3 -87 46 -135 38 -43 47 -49 106 -59 82 -14 1635
-16 1665 -2 11 5 37 10 57 11 27 1 47 10 67 29 38 37 58 83 43 98 -9 9 -13 4
-18 -19 -3 -17 -19 -43 -34 -58 l-28 -27 -908 1 -908 0 -33 36 c-30 32 -33 42
-33 96 0 62 -15 81 -22 29z"/>
<path d="M3095 3338 c-72 -40 -105 -92 -105 -167 0 -39 6 -52 38 -87 71 -78
22 -74 833 -73 1602 2 1570 2 1608 24 64 38 101 93 101 152 0 59 -94 167 -115
133 -3 -5 10 -16 30 -26 21 -9 35 -24 35 -34 0 -10 7 -20 15 -24 11 -4 15 -20
15 -55 0 -34 -4 -51 -15 -55 -8 -3 -15 -11 -15 -19 0 -7 -18 -25 -39 -39 l-40
-26 -1167 3 c-805 3 -1170 7 -1177 14 -6 6 -17 11 -24 11 -7 0 -24 17 -38 37
-29 44 -36 127 -10 137 8 3 15 12 15 21 0 9 16 23 35 31 19 8 35 18 35 22 0 4
503 7 1117 7 615 0 1140 2 1168 5 167 17 -100 23 -1119 26 l-1141 3 -40 -21z"/>
<path d="M3116 2923 c-3 -3 -169 -7 -368 -8 -345 -2 -398 -5 -398 -26 0 -5
410 -9 975 -9 565 0 975 4 975 9 0 11 -25 21 -55 21 -13 0 -26 3 -28 8 -6 9
-129 8 -145 -2 -7 -4 -18 -3 -25 2 -14 11 -317 9 -335 -2 -7 -4 -22 -4 -35 0
-36 11 -400 13 -414 2 -7 -6 -21 -7 -30 -3 -23 10 -109 15 -117 8z"/>
<path d="M4310 2865 c0 -8 9 -19 20 -25 11 -6 20 -21 20 -35 0 -29 18 -43 26
-20 4 9 -5 33 -20 55 -27 41 -46 51 -46 25z"/>
<path d="M2289 2838 c-35 -48 -34 -130 4 -180 32 -42 84 -69 142 -75 93 -9
1041 -8 1057 1 10 6 30 6 55 -1 21 -6 92 -9 158 -7 66 2 203 6 305 8 196 6
277 13 286 27 2 5 -432 9 -965 9 l-969 0 -36 32 c-34 30 -36 35 -36 97 0 57 3
68 27 93 19 20 22 28 12 28 -8 0 -26 -15 -40 -32z"/>
<path d="M4355 2717 c-4 -8 -5 -26 -3 -39 4 -23 4 -23 18 5 10 21 11 30 2 39
-8 8 -13 7 -17 -5z"/>
<path d="M4321 2651 c-7 -5 -12 -14 -10 -20 3 -6 9 -7 18 -2 7 5 12 14 10 20
-3 6 -9 7 -18 2z"/>
<path d="M2756 2493 c-1 -1 -209 -3 -462 -4 -491 -2 -499 -3 -549 -53 -44 -43
-69 -96 -46 -96 5 0 14 14 20 30 5 17 15 30 20 30 6 0 11 7 11 15 0 8 7 15 15
15 9 0 18 6 21 13 4 11 190 14 1050 14 l1046 1 36 -35 c20 -20 42 -48 49 -62
l11 -26 1 32 c1 25 -8 39 -45 72 -26 22 -60 43 -78 46 -29 5 -1095 13 -1100 8z"/>
<path d="M1700 2270 c0 -14 14 -42 31 -63 31 -38 59 -48 59 -22 0 8 -7 15 -15
15 -9 0 -18 7 -21 15 -4 8 -12 15 -20 15 -8 0 -14 8 -14 18 0 9 -5 24 -10 32
-8 12 -10 10 -10 -10z"/>
<path d="M3964 2268 c-9 -28 -45 -68 -61 -68 -7 0 -13 -7 -13 -15 0 -8 4 -15
8 -15 23 0 92 81 92 108 0 21 -18 13 -26 -10z"/>
<path d="M1848 2173 c-65 -6 -60 -20 8 -29 99 -12 1993 1 2007 15 8 8 -35 11
-177 11 -103 0 -548 2 -989 4 -441 2 -823 1 -849 -1z"/>
<path d="M1341 2047 c-81 -6 -110 -12 -130 -28 -27 -21 -71 -103 -70 -129 0
-13 1 -13 6 0 4 8 12 21 20 28 7 7 13 20 13 27 0 8 12 26 26 40 l26 26 1060 0
1059 1 34 -23 c26 -18 34 -32 39 -66 8 -60 -2 -103 -32 -136 -17 -18 -21 -27
-11 -27 8 0 23 10 35 23 29 31 39 144 15 180 -25 38 -72 77 -92 77 -11 0 -19
5 -19 10 0 13 -1815 10 -1979 -3z"/>
<path d="M1150 1838 c0 -8 7 -23 15 -34 15 -18 15 -18 13 10 -3 29 -28 50 -28
24z"/>
<path d="M1190 1780 c0 -21 55 -59 94 -66 22 -3 85 -8 140 -10 56 -2 106 -4
111 -4 6 -1 163 1 350 4 187 3 588 8 892 12 440 5 556 9 570 20 15 11 -150 13
-1043 14 -1048 0 -1061 0 -1079 20 -20 22 -35 26 -35 10z"/>
<path d="M1033 1620 c-307 -4 -368 -9 -351 -25 7 -7 2080 -7 2087 0 15 16 -35
25 -139 25 -940 4 -1311 4 -1597 0z"/>
<path d="M2780 1585 c0 -4 16 -22 35 -42 33 -34 35 -40 35 -100 0 -47 -4 -65
-15 -69 -8 -3 -17 -14 -20 -25 -4 -10 -14 -19 -24 -19 -9 0 -22 -5 -27 -10
-15 -15 -2063 -15 -2078 0 -5 5 -17 10 -25 10 -9 0 -27 16 -40 35 -13 19 -27
35 -32 35 -5 0 -9 21 -9 46 0 27 -4 43 -10 39 -30 -18 2 -108 54 -154 58 -51
51 -51 1111 -51 875 -1 994 1 1020 14 17 9 34 16 39 16 15 0 76 71 77 89 1 9
3 27 4 41 5 47 -8 82 -43 116 -32 31 -52 42 -52 29z"/>
<path d="M608 1560 c-21 -24 -33 -60 -18 -60 6 0 13 8 17 18 3 9 18 27 32 39
24 20 24 22 6 22 -11 0 -27 -9 -37 -19z"/>
<path d="M0 88 l0 -88 52 0 52 0 -25 28 c-35 38 -59 78 -59 99 0 10 -5 25 -10
33 -7 10 -10 -12 -10 -72z"/>
</g>
</svg>
