<?xml version="1.0" encoding="UTF-8"?>
<svg version="1.1" xmlns="http://www.w3.org/2000/svg" width="1191" height="1240">
<path d="M0 0 C393.03 0 786.06 0 1191 0 C1191 409.2 1191 818.4 1191 1240 C797.97 1240 404.94 1240 0 1240 C0 830.8 0 421.6 0 0 Z " fill="#282828" transform="translate(0,0)"/>
<path d="M0 0 C393.03 0 786.06 0 1191 0 C1191 23.1 1191 46.2 1191 70 C816.78 70 442.56 70 57 70 C57 453.79 57 837.58 57 1233 C431.22 1233 805.44 1233 1191 1233 C1191 1235.31 1191 1237.62 1191 1240 C797.97 1240 404.94 1240 0 1240 C0 830.8 0 421.6 0 0 Z " fill="#4E4E4E" transform="translate(0,0)"/>
<path d="M0 0 C1.66869137 -0.00638882 3.33738273 -0.01277764 5.05664051 -0.01936007 C10.65640125 -0.03463833 16.2554578 -0.01412689 21.85519409 0.00622559 C25.86629471 0.00272533 29.87739394 -0.00293216 33.88848877 -0.0105896 C44.78898859 -0.02485952 55.68923683 -0.00775404 66.58971262 0.01569557 C77.98459191 0.03577019 89.37946041 0.02992682 100.77435303 0.02758789 C119.9094161 0.02764149 139.04437851 0.0472943 158.17941284 0.07946777 C177.8727974 0.11256781 197.56607915 0.12672457 217.25949097 0.1204834 C240.98670877 0.11300084 264.71385529 0.12035936 288.44106674 0.14213562 C297.50714627 0.15032351 306.57320312 0.15301661 315.63928604 0.15144348 C326.30790694 0.15056651 336.97640446 0.16473054 347.64499283 0.19067001 C351.56743777 0.19785059 355.48989581 0.19990641 359.41234589 0.19655228 C364.75240878 0.19285599 370.0921079 0.20752197 375.43212891 0.22705078 C376.9967018 0.22172286 378.5612747 0.21639493 380.1732589 0.21090555 C381.601497 0.21996219 383.02973509 0.22901883 384.50125313 0.23834991 C385.73404538 0.23992112 386.96683764 0.24149232 388.23698723 0.24311113 C393.79209739 0.87011314 397.13584087 3.14256493 400.90158081 7.12145996 C404.92950026 12.36712251 404.58908081 13.56581122 404.58908081 20.62145996 C402.30826659 26.49894276 400.17925031 29.64796554 394.58908081 32.62145996 C388.66305801 34.59680089 381.95683725 33.76935688 375.74147034 33.76863098 C374.07296754 33.77230767 372.40446475 33.77598436 370.68540126 33.77977246 C365.05653033 33.79084538 359.42767782 33.79465922 353.79879761 33.79846191 C349.7785842 33.80472373 345.75837137 33.81137027 341.73815918 33.81837463 C330.78993801 33.83580813 319.84172122 33.84634232 308.8934896 33.85458016 C302.06087209 33.85972422 295.22825596 33.86580014 288.39563942 33.87209129 C269.48796967 33.88896294 250.5803016 33.90359895 231.67262554 33.91084003 C226.76465034 33.91275001 221.85667514 33.91467033 216.94869995 33.91662598 C215.11886334 33.91735159 215.11886334 33.91735159 213.25206033 33.91809186 C193.47840435 33.92639708 173.70480878 33.95174236 153.93117919 33.98420665 C133.64281028 34.0172453 113.35447523 34.03495282 93.06607944 34.03848428 C81.66964528 34.04084099 70.27330658 34.04988252 58.87689781 34.07494545 C48.1615641 34.09812964 37.44638938 34.10249818 26.73103714 34.09218407 C22.79084687 34.09168628 18.85064902 34.09807753 14.91048241 34.11174011 C9.54600874 34.12930579 4.18211519 34.12242696 -1.18235779 34.10920715 C-2.75423223 34.1201764 -4.32610668 34.13114565 -5.94561368 34.14244729 C-7.38041867 34.1338664 -8.81522365 34.12528551 -10.29350758 34.11644459 C-12.15131815 34.1179098 -12.15131815 34.1179098 -14.04666024 34.11940461 C-20.60731732 33.14836042 -23.35005837 29.69753599 -27.41091919 24.62145996 C-29.4459941 20.55131014 -28.65080354 16.03533209 -28.41091919 11.62145996 C-23.03037703 -0.4847599 -11.45164393 -0.09188442 0 0 Z " fill="#4C4C4C" transform="translate(172.41091918945313,298.3785400390625)"/>
<path d="M0 0 C1.56994083 -0.00594224 3.13988166 -0.01188449 4.75739646 -0.0180068 C10.04684271 -0.03542595 15.33619868 -0.03840109 20.62567139 -0.04138184 C24.40633845 -0.05063493 28.18700363 -0.06068381 31.96766663 -0.07147217 C42.2589603 -0.0977543 52.55022787 -0.11061655 62.84154987 -0.11949348 C69.26597002 -0.125349 75.69038297 -0.13355744 82.1147995 -0.14250183 C102.20040551 -0.16985972 122.28599515 -0.18918955 142.37161851 -0.19690561 C165.58552916 -0.20587155 188.79920455 -0.24098623 212.01304364 -0.2989068 C229.93837128 -0.3420852 247.8636326 -0.36231119 265.78901172 -0.36498785 C276.50367181 -0.36708773 287.21811086 -0.37898365 297.93271637 -0.41462708 C308.00875636 -0.44749339 318.08440804 -0.45194587 328.16048241 -0.43434906 C331.86279271 -0.43280324 335.56512348 -0.4415603 339.26738167 -0.46126556 C344.31389433 -0.48655459 349.35901602 -0.47503344 354.40551758 -0.45410156 C355.87750146 -0.47021437 357.34948534 -0.48632718 358.8660748 -0.50292826 C365.27734823 -0.44054783 369.05590805 -0.22200109 374.74117661 2.95182037 C378.68946722 7.03949185 380.79552047 10.56135736 381.33172607 16.28088379 C380.78093136 22.15602736 378.69538264 25.58179811 374.45672607 29.59338379 C367.93475459 34.60132618 361.05034307 33.43211189 353.14759827 33.43478394 C351.59076252 33.43916619 350.03392677 33.44354844 348.42991418 33.44806349 C343.17884053 33.46148835 337.92778367 33.46763862 332.67669678 33.47375488 C328.92573469 33.48165287 325.17477337 33.48992162 321.42381287 33.49853516 C309.07671844 33.52478776 296.72962055 33.54006484 284.38250732 33.55432129 C280.1383635 33.55967941 275.89421969 33.56505691 271.65007591 33.57045364 C254.00171484 33.59208604 236.35335469 33.61082455 218.70498371 33.62207603 C193.37867869 33.63832657 168.05252683 33.67152765 142.72627956 33.72847688 C124.93685695 33.76712057 107.1474754 33.78670208 89.3580119 33.7919966 C78.72384285 33.7956573 68.08983704 33.80775581 57.45571327 33.84009933 C47.45441926 33.87008174 37.4533881 33.8765264 27.45205879 33.86471558 C23.77716342 33.86449403 20.10225619 33.87286538 16.4274025 33.89036942 C11.41820585 33.9129343 6.4099725 33.90482163 1.40077209 33.8888855 C-0.79071764 33.90970863 -0.79071764 33.90970863 -3.0264799 33.93095243 C-10.81205726 33.86974435 -15.9437234 33.29310199 -22.04327393 28.28088379 C-25.9094916 24.31801067 -26.07190435 22.03622379 -26.73077393 16.40588379 C-25.93041418 9.27540602 -24.29883473 7.01088851 -19.04327393 2.28088379 C-12.96970576 -0.7559003 -6.66306639 -0.00779715 0 0 Z " fill="#4C4C4C" transform="translate(170.04327392578125,241.7191162109375)"/>
<path d="M0 0 C1.90019158 -0.01064158 1.90019158 -0.01064158 3.83877087 -0.02149814 C8.09049355 -0.03912287 12.34130755 -0.02094853 16.59301758 -0.00291443 C19.63832008 -0.00805147 22.68361962 -0.01533111 25.72891235 -0.02459717 C34.00566697 -0.04314627 42.28210037 -0.0301498 50.55884171 -0.01050687 C59.21240884 0.00585163 67.86595518 -0.00292937 76.51953125 -0.00802612 C91.05286809 -0.01255018 105.58607635 0.00334241 120.11938477 0.03126526 C136.93222838 0.0633183 153.74484007 0.06330227 170.55770016 0.04605049 C186.71782788 0.0301979 202.8778704 0.03691088 219.03799438 0.0539875 C225.92146059 0.0608679 232.80485871 0.05981533 239.68832397 0.05244255 C247.79122441 0.04479297 255.89386026 0.05686328 263.99671555 0.08429146 C266.9741983 0.09119019 269.95170569 0.09125746 272.92918777 0.08407593 C276.98645508 0.07541618 281.04289932 0.09128075 285.10009766 0.11352539 C287.37282059 0.11633231 289.64554352 0.11913923 291.98713684 0.12203121 C297.43565844 0.61778094 299.61026757 0.99369941 303.55004883 4.62818909 C308.07182934 10.28041472 308.46371532 12.54884123 308.55004883 19.62818909 C306.94440963 25.38960032 304.39603092 28.19561844 299.55004883 31.62818909 C294.64470811 33.26330266 289.68742551 32.76562385 284.53678894 32.77536011 C283.28072493 32.7790368 282.02466093 32.78271348 280.73053437 32.78650159 C276.49743551 32.79756537 272.26436118 32.80138681 268.03125 32.80519104 C265.00609763 32.81145355 261.98094603 32.81810016 258.95579529 32.82510376 C250.7202982 32.84253093 242.48480692 32.85306978 234.24929595 32.86130929 C229.10852631 32.86645481 223.96775849 32.87253068 218.82699013 32.87882042 C202.75551666 32.89787555 186.68404781 32.91210714 170.61256522 32.92043239 C152.03636485 32.93021306 133.46028338 32.95655311 114.88412493 32.99693328 C100.54098856 33.02704645 86.19788637 33.04189663 71.85471898 33.0452134 C63.28078494 33.04756897 54.70697787 33.05659571 46.13307762 33.08167458 C38.070476 33.10487678 30.00808566 33.10922002 21.94545937 33.09891319 C18.98247705 33.09841584 16.01948461 33.10479444 13.05653381 33.11846924 C9.01885275 33.13606505 4.98194015 33.12914152 0.94425964 33.11593628 C-1.31761106 33.11832463 -3.57948175 33.12071299 -5.90989399 33.12317371 C-11.35147134 32.63698791 -13.51390226 32.25680035 -17.44995117 28.62818909 C-22.64020954 22.14036613 -22.94652717 19.97066582 -22.44995117 11.62818909 C-17.43173101 1.3987403 -10.92142083 0.00281747 0 0 Z " fill="#4C4C4C" transform="translate(424.449951171875,800.3718109130859)"/>
<path d="M0 0 C1.23327154 -0.00538554 2.46654308 -0.01077108 3.73718649 -0.01631981 C7.88125255 -0.03065928 12.02500188 -0.02348065 16.16908264 -0.01637268 C19.13541929 -0.02207308 22.10175374 -0.02903605 25.06808472 -0.03717041 C33.13408145 -0.05515296 41.1999697 -0.05392384 49.26598048 -0.04822803 C55.99345741 -0.04514364 62.72091327 -0.05122024 69.44838721 -0.05726677 C85.31558987 -0.07132705 101.18273871 -0.06973809 117.04994202 -0.05836487 C133.43388657 -0.04688096 149.81766749 -0.06096074 166.20159048 -0.08776134 C180.25603292 -0.10989292 194.3104239 -0.11656148 208.36488253 -0.11068493 C216.76439204 -0.10730823 225.16379664 -0.10977788 233.56329155 -0.12693596 C241.46014504 -0.14236241 249.35675543 -0.13849694 257.25359917 -0.11963081 C260.15529838 -0.1159331 263.05701544 -0.11908755 265.95869827 -0.1295166 C269.9130971 -0.14264639 273.86668167 -0.13124847 277.82104492 -0.11352539 C280.03607192 -0.11331611 282.25109892 -0.11310682 284.53324795 -0.1128912 C289.917414 0.38247261 292.0636566 0.80589894 295.97401428 4.38768005 C300.9720193 10.63518632 301.48434871 12.42646303 300.97401428 20.38768005 C299.30852153 24.98444006 297.98959383 27.61412947 294.08790588 30.58598232 C288.47216366 33.04542243 283.84252299 32.89456553 277.71424866 32.90234375 C275.86283642 32.91276204 275.86283642 32.91276204 273.97402191 32.92339081 C269.83841887 32.94168617 265.7033878 32.93138872 261.56776428 32.92112732 C258.6027534 32.9281844 255.63774612 32.93692852 252.67274475 32.94723511 C244.61916819 32.96976082 236.56578786 32.96678193 228.51219177 32.95791364 C221.79215913 32.95280866 215.07216353 32.96009227 208.3521347 32.96738571 C192.50210339 32.9843945 176.65216833 32.98080845 160.80213928 32.96409607 C144.44085752 32.94716793 128.07984242 32.96301708 111.71858978 32.99531895 C97.67767103 33.0219914 83.63683541 33.02929731 69.59589386 33.02080387 C61.20698122 33.01586861 52.81822912 33.0181233 44.42933655 33.03859138 C36.54307268 33.05691164 28.65719337 33.05103349 20.77095032 33.02639198 C17.8745086 33.02137288 14.97803776 33.0249021 12.08161926 33.03754044 C8.13189415 33.05341321 4.18344427 33.03857109 0.23377991 33.01586914 C-1.97772766 33.01528283 -4.18923523 33.01469652 -6.46775818 33.01409245 C-12.36990072 32.34892082 -14.7682786 31.42964043 -19.02598572 27.38768005 C-22.76971509 21.14813111 -22.61280544 17.57622161 -22.02598572 10.38768005 C-16.76881668 0.62436612 -10.47507486 0.01149316 0 0 Z " fill="#4C4C4C" transform="translate(166.02598571777344,356.61231994628906)"/>
<path d="M0 0 C3.43671364 -0.00856522 3.43671364 -0.00856522 6.94285583 -0.01730347 C9.5046081 -0.01854895 12.06636043 -0.01967402 14.62811279 -0.02069092 C17.30829436 -0.02531685 19.98847527 -0.03034121 22.6686554 -0.03573608 C29.96829356 -0.04888403 37.26792252 -0.05530974 44.56757069 -0.05974674 C49.12422879 -0.06267371 53.68088436 -0.0667778 58.2375412 -0.07125092 C72.48295844 -0.08493236 86.72836991 -0.09459576 100.97379327 -0.09845281 C117.43885714 -0.10293482 133.90383805 -0.12048675 150.3688767 -0.1494534 C163.08143385 -0.17104485 175.79396762 -0.18115574 188.50654292 -0.18249393 C196.10572541 -0.1835438 203.70482998 -0.18949043 211.30399323 -0.20731354 C218.45139592 -0.22375023 225.59866176 -0.22597108 232.74607658 -0.21717453 C235.37203016 -0.21640179 237.99799096 -0.22077793 240.62392616 -0.23063278 C244.20377043 -0.2432814 247.78366925 -0.23570982 251.36352539 -0.22705078 C253.36859287 -0.22851734 255.37366035 -0.2299839 257.43948746 -0.2314949 C263.48908379 0.21885703 267.1090841 1.69587194 271.24822998 6.20294189 C274.86937155 11.06561772 274.8286313 14.0111813 274.43572998 20.14044189 C272.20575108 26.05846283 270.03597513 29.16158809 264.43572998 32.14044189 C259.92591564 33.64371334 255.61505523 33.27374952 250.86509705 33.28088379 C247.4641851 33.28944901 247.4641851 33.28944901 243.99456787 33.29818726 C241.46478277 33.29943269 238.93499761 33.30055777 236.4052124 33.30157471 C233.7544396 33.30620141 231.10366747 33.31122587 228.45289612 33.31661987 C221.23802521 33.32975951 214.02316362 33.3361918 206.80828261 33.34063053 C202.30404964 33.34355854 197.79981923 33.34766281 193.29558754 33.3521347 C179.21249026 33.36581332 165.12939881 33.37547838 151.04629534 33.3793366 C134.77141279 33.38381937 118.49661415 33.40137601 102.22175711 33.43033719 C89.65355226 33.45192861 77.08537105 33.46203951 64.51714784 33.46337771 C57.00517036 33.4644275 49.49327171 33.47037224 41.98131371 33.48819733 C34.91679563 33.50463421 27.85241601 33.50685478 20.78788567 33.49805832 C18.19256979 33.49728561 15.59724659 33.50166122 13.00194931 33.51151657 C9.4637599 33.52416625 5.92551527 33.51659322 2.38731384 33.50793457 C-0.5851546 33.51013441 -0.5851546 33.51013441 -3.61767292 33.51237869 C-10.69272643 32.98040233 -14.99215924 30.34756806 -19.56427002 25.14044189 C-22.35076216 19.56745761 -22.25027272 15.38900631 -20.43927002 9.45294189 C-15.31059406 0.39228104 -9.65818535 0.0143394 0 0 Z " fill="#4C4C4C" transform="translate(102.56427001953125,570.8595581054688)"/>
<path d="M0 0 C3.43006691 -0.01908669 3.43006691 -0.01908669 6.9294281 -0.03855896 C9.46040448 -0.03237665 11.99137984 -0.02577062 14.52235413 -0.01878357 C17.19018023 -0.02584151 19.85800233 -0.034586 22.52581787 -0.04489136 C29.76957667 -0.06740853 37.0131172 -0.06444003 44.25689769 -0.05556989 C50.30331361 -0.05046285 56.34968842 -0.05775027 62.3961001 -0.06504196 C76.65924992 -0.08204834 90.92229277 -0.0784675 105.18544006 -0.06175232 C119.90281322 -0.04482793 134.61988985 -0.06066867 149.33723062 -0.0929752 C161.97180945 -0.11965966 174.60629592 -0.12695021 187.2409001 -0.11846012 C194.78756863 -0.11352793 202.3340587 -0.11576282 209.88070488 -0.13624763 C216.97657964 -0.15458652 224.07202737 -0.14866695 231.1678791 -0.12404823 C233.7720277 -0.11903488 236.37620874 -0.12254355 238.98033142 -0.13519669 C242.53511783 -0.15110253 246.09000769 -0.13317216 249.64477539 -0.11352539 C251.63413085 -0.11293908 253.62348631 -0.11235277 255.67312527 -0.1117487 C261.42529421 0.57948472 264.35527724 1.96891605 268.88587952 5.5146637 C272.54908931 11.19263887 272.88587952 13.52915983 272.88587952 20.5146637 C271.12046384 26.20322533 268.77072057 29.12518215 263.88587952 32.5146637 C258.87406516 33.76761728 254.34616953 33.65403003 249.17048645 33.66856384 C246.89631332 33.67716431 244.6221402 33.68576477 242.27905273 33.69462585 C239.74662804 33.69906113 237.21420309 33.70335949 234.68177795 33.70753479 C232.02425021 33.71543526 229.36672354 33.72370417 226.709198 33.73231506 C217.97122727 33.75853777 209.23325173 33.77384125 200.49525452 33.7881012 C197.48902127 33.79346045 194.48278805 33.79883795 191.47655487 33.80423355 C178.97431224 33.82586109 166.47207091 33.84459904 153.9698143 33.85585594 C136.04158187 33.87210378 118.11356586 33.90530375 100.18541503 33.96225679 C87.58488895 34.00092372 74.98442085 34.02048471 62.38383698 34.02577651 C54.85497768 34.02943386 47.3263492 34.04149706 39.79755402 34.07387924 C32.71571516 34.1039028 25.63424751 34.11029166 18.55235863 34.09849548 C15.95303401 34.09827429 13.35369245 34.10661717 10.75442696 34.12414932 C7.20609249 34.14678055 3.65759028 34.13558064 0.10920715 34.12266541 C-2.8696092 34.12763062 -2.8696092 34.12763062 -5.90860367 34.13269615 C-11.65060131 33.45096924 -14.57136552 32.01907417 -19.11412048 28.5146637 C-23.18758549 23.21915918 -23.92854916 19.12058522 -23.11412048 12.5146637 C-17.95958162 1.73699154 -11.45935694 0.01617187 0 0 Z " fill="#4C4C4C" transform="translate(104.11412048339844,1029.485336303711)"/>
<path d="M0 0 C2.26438431 -0.0071553 4.52876862 -0.01431061 6.86177063 -0.02168274 C9.38838182 -0.02452318 11.91499316 -0.02723489 14.44160461 -0.02983093 C17.08913259 -0.03609391 19.73665967 -0.04274056 22.38418579 -0.04974365 C29.59092397 -0.06716827 36.79765551 -0.07770932 44.00440955 -0.08594918 C48.50463778 -0.09109604 53.00486394 -0.0971719 57.50509071 -0.10346031 C71.57857967 -0.12251612 85.65206337 -0.13674666 99.72556275 -0.14507228 C115.98346995 -0.15484833 132.24124113 -0.18117605 148.49910039 -0.22157317 C161.05714494 -0.25170879 173.61515045 -0.26653872 186.17323047 -0.26985329 C193.67747546 -0.2722066 201.1815752 -0.28120386 208.68578148 -0.30631447 C215.74541007 -0.32955539 222.80479737 -0.3338442 229.86445427 -0.32355309 C232.45570934 -0.32305666 235.04697614 -0.32940839 237.63819504 -0.34310913 C241.17566353 -0.36076661 244.71323629 -0.35135691 248.25073242 -0.34057617 C250.23053447 -0.34296453 252.21033651 -0.34535288 254.25013256 -0.34781361 C259.66489645 0.16833957 262.86903725 1.26234309 267.44282532 4.14717102 C270.98102956 8.49621373 272.33882005 11.18512228 272.94282532 16.77217102 C272.29730243 22.42049633 270.60685591 26.05589234 266.44282532 29.95967102 C261.01978466 33.9139715 256.38504179 33.28508042 249.77175903 33.30780029 C246.33731888 33.32286873 246.33731888 33.32286873 242.83349609 33.33824158 C240.27854952 33.34427202 237.7236026 33.35015699 235.1686554 33.35591125 C232.4915708 33.36544663 229.81448746 33.37533765 227.1374054 33.38555908 C218.32907073 33.41697794 209.5207265 33.43721332 200.71235657 33.45576477 C199.21492849 33.45906209 197.71750041 33.46235941 196.17469573 33.46575665 C182.05866868 33.49653659 167.94263955 33.52325058 153.82658863 33.54017544 C135.75559658 33.56209441 117.68490121 33.60408922 99.6140278 33.67361301 C86.91585982 33.72081218 74.217772 33.74510353 61.51951903 33.75237232 C53.93135518 33.75733432 46.34352551 33.77246873 38.75545692 33.81211662 C31.61695525 33.84892369 24.47897946 33.85741143 17.3404007 33.84411049 C14.72010637 33.84416453 12.09978908 33.85449943 9.47958183 33.87586212 C5.90276433 33.90346557 2.32570216 33.89047736 -1.25119019 33.87542725 C-4.2540778 33.88177516 -4.2540778 33.88177516 -7.31762981 33.8882513 C-13.45712839 33.01988173 -16.10776777 31.40306212 -20.55717468 27.14717102 C-23.65660031 20.94831977 -24.50233125 17.31622539 -22.49467468 10.58467102 C-16.93916888 0.72812846 -10.44774031 0.02257336 0 0 Z " fill="#4C4C4C" transform="translate(252.5571746826172,914.8528289794922)"/>
<path d="M0 0 C2.26713364 -0.00852997 4.53426727 -0.01705994 6.87010193 -0.02584839 C9.38945014 -0.02514933 11.9087983 -0.02422625 14.42814636 -0.02310181 C17.07597036 -0.0290848 19.72379261 -0.03588981 22.37161255 -0.04345703 C29.56998046 -0.06114752 36.76830085 -0.0658137 43.96668839 -0.0670886 C49.97322871 -0.06898631 55.97975792 -0.07634237 61.98629397 -0.08343279 C76.15637027 -0.09972595 90.32642115 -0.1046009 104.49650574 -0.10317993 C119.11949497 -0.10197825 133.74233666 -0.12308341 148.36528856 -0.15466726 C160.91488681 -0.1808082 173.46443682 -0.19154814 186.01406211 -0.19026911 C193.51156178 -0.18975884 201.00893038 -0.19547829 208.50640297 -0.21662521 C215.55786186 -0.23597062 222.60906413 -0.23615704 229.660532 -0.22159195 C232.24855931 -0.21949819 234.83660252 -0.22423835 237.42460251 -0.23631287 C240.9575966 -0.25172863 244.49067792 -0.2400752 248.02368164 -0.22705078 C250.00088605 -0.22814032 251.97809046 -0.22922985 254.01521015 -0.2303524 C259.45951937 0.2921079 262.62462457 1.32643614 267.20231628 4.26742554 C272.59123222 11.00357045 272.67596752 13.55224284 272.20231628 22.26742554 C269.74387005 27.27537156 266.31459316 30.7112871 261.20231628 33.26742554 C257.68664338 33.37477265 254.16880226 33.41153067 250.65150452 33.42132568 C248.36325241 33.42992615 246.07500031 33.43852661 243.71740723 33.4473877 C241.15882896 33.4518233 238.60025046 33.45612162 236.04167175 33.46029663 C233.36473483 33.46819453 230.68779898 33.47646328 228.01086426 33.4850769 C219.19708783 33.51133452 210.38330656 33.52660888 201.56950378 33.54086304 C198.53912986 33.54622129 195.50875597 33.5515988 192.47838211 33.55699539 C179.87499593 33.57863014 167.27161105 33.59736768 154.66821098 33.60861778 C136.58766452 33.62486119 118.50733284 33.65804218 100.42686737 33.71501863 C87.72447162 33.75368638 75.0221334 33.77324679 62.31968033 33.77853835 C54.72819379 33.78219627 47.13693613 33.79426494 39.54551315 33.82664108 C32.4029643 33.85666523 25.2607835 33.86305328 18.11818504 33.85125732 C15.49628644 33.85103612 12.87437105 33.85937992 10.25253105 33.87691116 C6.67343551 33.89954069 3.09417369 33.88834301 -0.48497009 33.87542725 C-2.48819399 33.87873739 -4.49141788 33.88204754 -6.55534554 33.88545799 C-12.33045429 33.20461587 -15.25386841 31.82979039 -19.79768372 28.26742554 C-23.46089351 22.58945036 -23.79768372 20.25292941 -23.79768372 13.26742554 C-18.44172 1.98164484 -11.9438597 0.02025841 0 0 Z " fill="#4C4C4C" transform="translate(180.7976837158203,627.7325744628906)"/>
<path d="M0 0 C2.27417313 -0.0071553 4.54834625 -0.01431061 6.89143372 -0.02168274 C9.42385851 -0.02452308 11.95628344 -0.0272348 14.4887085 -0.02983093 C17.14623605 -0.03609491 19.80376274 -0.04274165 22.46128845 -0.04974365 C29.69069398 -0.06715758 36.92009289 -0.07770618 44.1495142 -0.08594918 C48.66432116 -0.09109779 53.17912607 -0.09717354 57.69393158 -0.10346031 C71.81440349 -0.12251223 85.93487016 -0.1367442 100.05535245 -0.14507228 C116.36531987 -0.15485011 132.67515177 -0.18118408 148.98507142 -0.22157317 C161.58559862 -0.251708 174.18608692 -0.2665386 186.78664947 -0.26985329 C194.31547158 -0.27220647 201.84414891 -0.28120222 209.37293243 -0.30631447 C216.45473501 -0.32955433 223.53629704 -0.33384464 230.61812782 -0.32355309 C233.21744651 -0.32305665 235.81677687 -0.32940859 238.41605949 -0.34310913 C241.96442227 -0.36076593 245.51288897 -0.35135713 249.0612793 -0.34057617 C251.04715687 -0.34296453 253.03303444 -0.34535288 255.07909012 -0.34781361 C261.60799977 0.27301042 266.12852211 1.9910862 270.78460693 6.64717102 C273.06503241 11.96816381 272.76057229 16.43558672 272.28460693 22.14717102 C269.98831235 27.09303628 266.97136828 29.4547762 262.28460693 32.14717102 C257.77957137 33.64884954 253.47255052 33.28770295 248.72743225 33.30107117 C246.46304794 33.30967163 244.19866364 33.31827209 241.86566162 33.32713318 C239.33905052 33.33156862 236.81243918 33.33586696 234.28582764 33.34004211 C231.63829948 33.34794132 228.9907724 33.35621016 226.34324646 33.36482239 C217.63230419 33.3910623 208.92135707 33.40635147 200.21038818 33.42060852 C197.2143726 33.42596729 194.21835705 33.43134479 191.22234154 33.43674088 C178.76217344 33.458372 166.30200666 33.47710973 153.84182453 33.48836327 C135.97056061 33.50460875 118.09951389 33.53779892 100.22833186 33.59476411 C87.67028844 33.63343206 75.11230319 33.65299223 62.55420178 33.65828383 C55.04991948 33.66194139 47.54586875 33.6740065 40.04165077 33.70638657 C32.98198578 33.73641149 25.92269316 33.74279849 18.86297798 33.73100281 C16.27171696 33.73078161 13.68043893 33.73912424 11.08923721 33.75665665 C7.55179712 33.77928876 4.01418875 33.7680877 0.47669983 33.75517273 C-2.49300324 33.76013795 -2.49300324 33.76013795 -5.52270031 33.76520348 C-12.34887772 32.95275426 -16.46087314 30.45805395 -21.21539307 25.58467102 C-23.52190579 20.29891269 -23.18911805 15.83187083 -22.71539307 10.14717102 C-20.5242116 5.6865516 -18.74339102 4.16816949 -14.71539307 1.14717102 C-9.70259085 -0.10602953 -5.1767435 0.01114849 0 0 Z " fill="#4C4C4C" transform="translate(180.71539306640625,972.8528289794922)"/>
<path d="M0 0 C2.07635742 -0.0112793 4.15271484 -0.02255859 6.29199219 -0.03417969 C9.69983788 -0.0220343 9.69983788 -0.0220343 13.17652893 -0.00964355 C15.59805217 -0.01506486 18.01957212 -0.02218757 20.44108582 -0.03088379 C27.01339515 -0.04911975 33.58545333 -0.042048 40.15776706 -0.02936745 C47.03667296 -0.01924017 53.91555736 -0.02863249 60.79446411 -0.03491211 C72.34747681 -0.04218977 83.90038723 -0.03259811 95.4533844 -0.0135498 C108.80744198 0.00821388 122.16125524 0.00117149 135.51530689 -0.02085543 C146.98216608 -0.03901209 158.44895174 -0.04156624 169.91582066 -0.03110075 C176.76382105 -0.02486668 183.61170663 -0.02402789 190.45969963 -0.0372467 C196.89891993 -0.0488081 203.33782553 -0.04077356 209.77701187 -0.01766968 C213.26548074 -0.00986406 216.75397624 -0.02173593 220.24243164 -0.03417969 C223.36119751 -0.01726074 223.36119751 -0.01726074 226.54296875 0 C228.34796561 0.0015081 230.15296247 0.0030162 232.01265621 0.00457001 C237.19920321 0.5459534 240.415448 1.78794995 244.8349762 4.50793457 C249.32263904 10.1462802 249.8349762 13.12520445 249.8349762 20.50793457 C246.72109536 26.46879217 243.52577031 31.27766987 236.8349762 33.50793457 C233.62093873 33.61306803 230.40467544 33.65188483 227.18893433 33.66183472 C225.12648972 33.67043518 223.0640451 33.67903564 220.93910217 33.68789673 C218.66217468 33.69215668 216.38524719 33.69641663 214.0393219 33.70080566 C211.62824383 33.70870528 209.21716694 33.71697414 206.80609131 33.72558594 C198.87432487 33.75182161 190.9425531 33.76711481 183.01075745 33.78137207 C180.28219792 33.78673105 177.55363842 33.79210856 174.82507896 33.79750443 C163.47666666 33.81913513 152.12825578 33.83787259 140.77982807 33.84912682 C124.50606944 33.86537063 108.2325494 33.89855714 91.95888072 33.95552766 C80.52184712 33.99420371 69.08487741 34.01375675 57.64778012 34.01904738 C50.81418435 34.0227039 43.98084297 34.03475783 37.14731789 34.06715012 C30.71799822 34.09718926 24.28908744 34.10355702 17.8597126 34.09176636 C14.37593388 34.09143988 10.89218054 34.11593165 7.40849304 34.1411438 C4.29367744 34.12866608 4.29367744 34.12866608 1.11593628 34.11593628 C-1.58829041 34.1209015 -1.58829041 34.1209015 -4.34714794 34.12596703 C-10.92423636 33.28226449 -15.07702964 30.64812859 -19.6650238 25.94543457 C-21.97153653 20.65967624 -21.63874879 16.19263438 -21.1650238 10.50793457 C-17.06740896 1.32927733 -9.30298617 0.00777441 0 0 Z " fill="#4C4C4C" transform="translate(327.16502380371094,857.4920654296875)"/>
<path d="M0 0 C2.1312735 -0.0071553 4.262547 -0.01431061 6.45840454 -0.02168274 C8.8406981 -0.02452326 11.22299181 -0.02723496 13.60528564 -0.02983093 C16.09827775 -0.03609297 18.59126891 -0.04273954 21.08425903 -0.04974365 C27.87357989 -0.06717687 34.6628937 -0.0777116 41.45223141 -0.08594918 C45.69062104 -0.09109409 49.92900847 -0.09717003 54.16739655 -0.10346031 C67.41862329 -0.12251828 80.66984444 -0.13674851 93.92108226 -0.14507228 C109.2355248 -0.15484993 124.549823 -0.18118089 139.86421466 -0.22157317 C151.68930523 -0.25169586 163.51435434 -0.26653748 175.33948255 -0.26985329 C182.40772982 -0.27220805 189.475823 -0.28122396 196.54402924 -0.30631447 C203.19243407 -0.32953294 209.84058268 -0.33385336 216.48901749 -0.32355309 C218.93114446 -0.32305611 221.37328379 -0.32942386 223.81537247 -0.34310913 C227.14558592 -0.36072925 230.47590977 -0.35136918 233.80615234 -0.34057617 C236.60358477 -0.3441587 236.60358477 -0.3441587 239.45753098 -0.34781361 C244.41319238 0.17415037 246.45754766 0.90395815 250.15704346 4.14717102 C254.93756086 10.12281778 255.60374709 12.66488515 255.15704346 20.14717102 C252.28772406 25.88580982 249.90681819 29.27228365 244.15704346 32.14717102 C240.87736859 32.25207712 237.59543053 32.28681687 234.31408691 32.29434204 C231.11717667 32.305075 231.11717667 32.305075 227.85568237 32.31602478 C225.47338882 32.3188653 223.0910951 32.321577 220.70880127 32.32417297 C218.21580917 32.33043501 215.72281801 32.33708158 213.22982788 32.34408569 C206.44050702 32.36151891 199.65119322 32.37205364 192.86185551 32.38029122 C188.62346587 32.38543613 184.38507845 32.39151207 180.14669037 32.39780235 C166.89546362 32.41686032 153.64424248 32.43109055 140.39300466 32.43941432 C125.07856212 32.44919198 109.76426391 32.47552293 94.44987226 32.51591522 C82.62478168 32.5460379 70.79973258 32.56087952 58.97460437 32.56419533 C51.9063571 32.56655009 44.83826392 32.575566 37.77005768 32.60065651 C31.12165284 32.62387498 24.47350424 32.6281954 17.82506943 32.61789513 C15.38294245 32.61739815 12.94080313 32.6237659 10.49871445 32.63745117 C7.16850099 32.65507129 3.83817715 32.64571122 0.50793457 32.63491821 C-1.35702038 32.63730657 -3.22197533 32.63969492 -5.14344406 32.64215565 C-10.09910547 32.12019167 -12.14346074 31.39038389 -15.84295654 28.14717102 C-20.59173436 22.21119874 -21.3910651 19.60144743 -20.84295654 12.14717102 C-16.17485996 1.77362306 -10.57507045 0.02425203 0 0 Z " fill="#4C4C4C" transform="translate(249.84295654296875,685.8528289794922)"/>
<path d="M0 0 C2.90431068 -0.01475121 2.90431068 -0.01475121 5.86729431 -0.02980042 C9.0414093 -0.01529846 9.0414093 -0.01529846 12.27964783 -0.00050354 C15.63170631 -0.00860802 15.63170631 -0.00860802 19.05148315 -0.01687622 C25.17534195 -0.03083468 31.29891991 -0.01965841 37.42276311 -0.00316501 C43.83147606 0.01068688 50.24017274 0.00422531 56.64889526 0.0007019 C67.4099734 -0.0019999 78.17093998 0.01147364 88.93199158 0.03465271 C101.37492973 0.06126893 113.81768143 0.06300724 126.2606383 0.05126435 C138.22989925 0.04048751 150.19909272 0.04667249 162.16834831 0.06081963 C167.26272106 0.06657954 172.35704444 0.0664967 177.45141792 0.06175423 C184.56223338 0.05609865 191.67277002 0.07529686 198.78355408 0.09715271 C200.90165497 0.09265106 203.01975586 0.08814941 205.20204163 0.08351135 C207.13542892 0.09341599 209.06881622 0.10332062 211.06079102 0.11352539 C212.74226762 0.11595529 214.42374422 0.11838518 216.15617466 0.12088871 C222.1884389 0.65308895 225.64634515 2.6342002 229.77940369 7.00120544 C233.80732314 12.24686799 233.46690369 13.4455567 233.46690369 20.50120544 C230.54731901 26.3403748 228.50800217 28.63036197 223.46690369 32.50120544 C219.3840247 33.86216511 215.73946086 33.64083109 211.42828369 33.65510559 C209.50046555 33.66370605 207.5726474 33.67230652 205.58641052 33.6811676 C203.45909485 33.68542755 201.33177917 33.6896875 199.13999939 33.69407654 C195.79363594 33.70634277 195.79363594 33.70634277 192.37966919 33.71885681 C184.96735342 33.74508917 177.55503196 33.76038553 170.14268494 33.77464294 C167.59242944 33.7800021 165.04217398 33.7853796 162.49191856 33.7907753 C151.88467683 33.81240567 141.27743663 33.83114292 130.67017841 33.84239769 C115.46142216 33.85864019 100.25292126 33.89182384 85.04426128 33.94879854 C74.35456756 33.98748092 63.6649422 34.00702838 52.97518033 34.01231825 C46.58870777 34.01597396 40.20250749 34.02801913 33.81611061 34.06042099 C26.69084577 34.09605305 19.56613067 34.09213471 12.44078064 34.08470154 C9.26498886 34.10930954 9.26498886 34.10930954 6.02503967 34.13441467 C4.08312241 34.12609619 2.14120514 34.11777771 0.14044189 34.10920715 C-2.38680054 34.11417237 -2.38680054 34.11417237 -4.96509838 34.1192379 C-10.3209815 33.39460763 -13.2556782 31.75327671 -17.53309631 28.50120544 C-21.0727794 23.10318874 -22.43646037 18.92512759 -21.53309631 12.50120544 C-16.69438258 2.5305226 -10.78632693 0.00134221 0 0 Z " fill="#4C4C4C" transform="translate(343.53309631347656,742.4987945556641)"/>
<path d="M0 0 C1.54626572 -0.01272446 3.09253143 -0.02544891 4.68565369 -0.03855896 C7.20985458 -0.02877014 7.20985458 -0.02877014 9.78504944 -0.01878357 C12.45929268 -0.03170692 12.45929268 -0.03170692 15.18756104 -0.04489136 C21.08486927 -0.0676067 26.98170448 -0.06080118 32.87904358 -0.05174255 C36.97520082 -0.0569756 41.07135686 -0.06325091 45.16751099 -0.07052612 C53.75459969 -0.08094074 62.34152279 -0.07635302 70.92860413 -0.06175232 C81.93941981 -0.04456429 92.9497137 -0.06805707 103.96047115 -0.10324192 C112.41993679 -0.12518904 120.87927708 -0.1237807 129.33876228 -0.11547661 C133.39876948 -0.11465563 137.45878574 -0.12154681 141.5187664 -0.13624763 C147.19249033 -0.15364126 152.86526997 -0.13918854 158.53895569 -0.11643982 C160.21973206 -0.12813202 161.90050842 -0.13982422 163.63221741 -0.15187073 C177.86991115 -0.03556777 177.86991115 -0.03556777 184.22669983 5.5146637 C188.29670665 10.80567256 188.97053557 14.91312151 188.22669983 21.5146637 C185.82521184 26.31763968 182.54451898 29.3662539 178.22669983 32.5146637 C174.22568022 33.5149186 171.0100309 33.65399109 166.89682007 33.67529297 C164.61101768 33.6903614 164.61101768 33.6903614 162.27903748 33.70573425 C160.60572357 33.71156525 158.93240967 33.71739624 157.20838928 33.72340393 C155.44711197 33.73318771 153.68583466 33.7429715 151.8711853 33.75305176 C146.02745829 33.78303066 140.18375418 33.80439679 134.33998108 33.82325745 C132.34695639 33.82982927 130.35393169 33.8364011 128.30051231 33.84317207 C117.75386133 33.87577452 107.20722051 33.90022491 96.66053772 33.91969299 C87.92178199 33.93752038 79.18334805 33.97236511 70.44471741 34.02223206 C59.90375506 34.08231869 49.36309164 34.1131534 38.82196617 34.12286568 C34.80183118 34.13143988 30.78170459 34.15030552 26.76166725 34.1796093 C21.13808259 34.21839914 15.51566908 34.21957231 9.89198303 34.21168518 C7.39719391 34.2416861 7.39719391 34.2416861 4.852005 34.27229309 C-4.04772392 34.21620193 -9.93859647 33.86875569 -16.77330017 27.5146637 C-19.82359577 21.4140725 -20.48620247 19.10900997 -19.77330017 12.5146637 C-15.46641757 3.50936372 -9.90174651 0.0207408 0 0 Z " fill="#4C4C4C" transform="translate(100.77330017089844,126.48533630371094)"/>
<path d="M0 0 C1.76346771 -0.0071553 3.52693542 -0.01431061 5.34384155 -0.02168274 C11.17089773 -0.03858606 16.99718646 -0.0191538 22.82421875 0.00219727 C26.87410547 0.00136874 30.92399215 -0.00109002 34.97387695 -0.00511169 C43.46087772 -0.00797087 51.94761477 0.00674498 60.43457031 0.03417969 C71.31639828 0.06826107 82.19775457 0.06224449 93.0796051 0.04351711 C101.44213801 0.03295155 109.80456105 0.04188125 118.16708374 0.05690193 C122.17963332 0.06208735 126.19219435 0.06159763 130.20474243 0.05535698 C135.81122533 0.04991074 141.41703166 0.07026568 147.0234375 0.09765625 C149.51419327 0.08786743 149.51419327 0.08786743 152.05526733 0.07788086 C166.15079041 0.19504604 166.15079041 0.19504604 172.51171875 4.63110352 C176.71418863 8.92112485 177.46325668 11.1518675 178.07421875 17.19360352 C177.51642002 22.58565794 177.06614406 24.69241601 173.51171875 28.63110352 C167.60033997 33.36020654 165.46502992 33.75523204 158.21270752 33.77827454 C156.6704953 33.78542984 155.12828308 33.79258514 153.53933716 33.79995728 C150.99120804 33.80399063 150.99120804 33.80399063 148.39160156 33.80810547 C145.71582504 33.81796227 145.71582504 33.81796227 142.98599243 33.82801819 C137.06227582 33.84778563 131.13858458 33.85942069 125.21484375 33.86938477 C122.18708897 33.87549806 122.18708897 33.87549806 119.09816742 33.88173485 C108.41765952 33.90260891 97.73716453 33.91690567 87.05664062 33.92626953 C76.00535806 33.937345 64.95427623 33.97175507 53.90306473 34.01144123 C45.42221696 34.03753955 36.94141754 34.04595531 28.46053314 34.04955101 C24.385736 34.0544334 20.31094126 34.06609386 16.23618317 34.084589 C10.54042982 34.10883747 4.84520281 34.10804073 -0.85058594 34.10107422 C-3.38656967 34.12028931 -3.38656967 34.12028931 -5.9737854 34.13989258 C-8.30402267 34.12947685 -8.30402267 34.12947685 -10.68133545 34.11885071 C-12.02786572 34.12123906 -13.37439598 34.12362741 -14.76173019 34.12608814 C-20.5607568 33.3558239 -24.30350015 31.11967464 -27.92578125 26.56860352 C-30.01454821 21.30491077 -30.00474937 17.24769436 -29.48828125 11.63110352 C-23.94136488 -0.84945831 -11.74268227 -0.08268441 0 0 Z " fill="#4C4C4C" transform="translate(173.48828125,183.368896484375)"/>
<path d="M0 0 C1.5086261 -0.00571014 3.0172522 -0.01142029 4.57159424 -0.01730347 C7.07136841 -0.01898026 7.07136841 -0.01898026 9.62164307 -0.02069092 C11.36794006 -0.02565582 13.11423706 -0.03062073 14.91345215 -0.03573608 C20.71755358 -0.0503974 26.52162768 -0.05716637 32.32574463 -0.06268311 C36.34415691 -0.06843132 40.36256919 -0.07418909 44.38098145 -0.07995605 C52.81797413 -0.09047738 61.25495724 -0.09631263 69.69195557 -0.09979248 C80.51800826 -0.10527927 91.34393531 -0.12930692 102.16994858 -0.15776443 C110.4740435 -0.17636195 118.77810799 -0.18159489 127.08222198 -0.18312836 C131.07410621 -0.18616197 135.06598981 -0.19421414 139.0578537 -0.20731354 C144.63650648 -0.22431289 150.2148501 -0.2225082 155.79351807 -0.21600342 C157.45193726 -0.2252182 159.11035645 -0.23443298 160.81903076 -0.243927 C163.09888885 -0.23557327 163.09888885 -0.23557327 165.42480469 -0.22705078 C166.74405819 -0.22851734 168.06331169 -0.2299839 169.42254257 -0.2314949 C175.07240674 0.36147771 178.44187132 2.58625501 182.27886963 6.64044189 C186.30678908 11.88610444 185.96636963 13.08479315 185.96636963 20.14044189 C183.04678495 25.97961125 181.00746811 28.26959842 175.96636963 32.14044189 C172.43007584 33.31920649 169.62940095 33.27234415 165.8951416 33.28088379 C163.65755066 33.28944901 163.65755066 33.28944901 161.37475586 33.29818726 C159.73210754 33.29930511 158.08945923 33.30042297 156.39703369 33.30157471 C154.6717041 33.30653961 152.94637451 33.31150452 151.16876221 33.31661987 C145.43983568 33.33126966 139.71093684 33.33804819 133.98199463 33.34356689 C130.01224771 33.34931597 126.0425008 33.35507373 122.07275391 33.36083984 C113.74009064 33.37135782 105.40743704 33.3771953 97.07476807 33.38067627 C86.38672532 33.38616294 75.69880984 33.41019175 65.01080704 33.43864822 C56.8078982 33.45725264 48.60502014 33.46247904 40.40209198 33.46401215 C36.46127374 33.4670441 32.52045612 33.47509073 28.57965851 33.48819733 C23.07076783 33.50521132 17.56218983 33.50338839 12.05328369 33.49688721 C10.4187323 33.50610199 8.78418091 33.51531677 7.10009766 33.52481079 C5.59709106 33.51924164 4.09408447 33.51367249 2.54553223 33.50793457 C1.24324802 33.50940113 -0.05903618 33.51086769 -1.40078354 33.51237869 C-7.18077243 32.92061398 -10.93327298 31.31256172 -14.90863037 27.07794189 C-18.7801096 21.7261912 -18.39454922 17.78134877 -18.03363037 11.14044189 C-14.04371866 3.01284397 -8.62895309 0.0194789 0 0 Z " fill="#4C4C4C" transform="translate(162.03363037109375,413.85955810546875)"/>
<path d="M0 0 C1.41379944 -0.00890762 2.82759888 -0.01781525 4.28424072 -0.0269928 C8.95298543 -0.04828541 13.62035156 -0.02595868 18.2890625 -0.0012207 C21.53564597 -0.00272296 24.78222907 -0.00615259 28.02880859 -0.01142883 C34.83123829 -0.01576155 41.63319414 0.00108966 48.43554688 0.03320312 C57.15522457 0.07298231 65.87401361 0.06368445 74.59371948 0.03896809 C81.29719324 0.02478646 88.0004594 0.03487105 94.70391846 0.0524807 C97.91904199 0.05833132 101.13418676 0.05702703 104.3493042 0.04845619 C108.84272487 0.04046704 113.33484281 0.06470543 117.828125 0.09765625 C119.15716858 0.08910614 120.48621216 0.08055603 121.85552979 0.07174683 C129.0608867 0.16295575 133.68421949 0.59783041 138.9140625 5.76049805 C142.51500572 11.76207008 142.45086505 14.858751 141.9140625 21.76049805 C139.51755824 27.79968877 136.81611842 30.18427277 130.9140625 32.76049805 C126.19452939 33.1429384 121.71349009 33.30719271 116.99584961 33.27807617 C114.90200172 33.28859009 114.90200172 33.28859009 112.76585388 33.29931641 C108.15750159 33.31690361 103.54976465 33.30527038 98.94140625 33.29174805 C95.73726788 33.29444256 92.53313032 33.29832465 89.32899475 33.30334473 C82.61663013 33.30924068 75.90447853 33.30067241 69.19213867 33.28198242 C60.58457724 33.25918444 51.97751445 33.27232191 43.36997128 33.29627228 C36.75493099 33.31071926 30.14000912 33.30612929 23.52496529 33.29576111 C20.35087589 33.2930913 17.17677577 33.29637244 14.0026989 33.30567932 C9.56913597 33.31582695 5.13638337 33.30036626 0.70288086 33.27807617 C-1.26802521 33.29022156 -1.26802521 33.29022156 -3.27874756 33.3026123 C-14.4375594 33.19857307 -14.4375594 33.19857307 -19.0859375 28.76049805 C-23.60771801 23.10827241 -23.99960399 20.83984591 -24.0859375 13.76049805 C-20.74818481 1.24392548 -11.57108245 -0.11941967 0 0 Z " fill="#4C4C4C" transform="translate(105.0859375,471.239501953125)"/>
<path d="M0 0 C83.82 0 167.64 0 254 0 C254 4.62 254 9.24 254 14 C170.18 14 86.36 14 0 14 C0 9.38 0 4.76 0 0 Z " fill="#E0E0E0" transform="translate(58,14)"/>
<path d="M0 0 C393.03 0 786.06 0 1191 0 C1191 0.66 1191 1.32 1191 2 C1190.00582082 2.00055616 1189.01164163 2.00111233 1187.98733581 2.00168534 C1079.78125686 2.06228853 971.57517948 2.12535161 863.36911011 2.20132446 C861.75352172 2.20245809 860.13793333 2.20359171 858.47338771 2.20475969 C823.36478791 2.22940944 788.25618843 2.25450223 753.14758927 2.28005161 C735.9310752 2.29257779 718.71456106 2.30500603 701.49804688 2.31738281 C699.7847699 2.31861614 698.07149292 2.31984946 696.30629846 2.32112016 C640.74462341 2.36107103 585.18294675 2.39455144 529.62126558 2.42468691 C472.53845207 2.4556815 415.45564646 2.49318291 358.37284275 2.53890612 C350.31573998 2.5453568 342.25863714 2.55173287 334.20153427 2.55806351 C332.6157349 2.55931181 331.02993553 2.56056012 329.39608163 2.56184625 C303.83880498 2.58177227 278.2815292 2.59481117 252.72424712 2.60529328 C227.04891139 2.6159701 201.37358879 2.63385804 175.69826324 2.65916704 C160.43225537 2.67399445 145.16626759 2.68323267 129.90025244 2.68456683 C119.71158857 2.68600123 109.52294738 2.69462093 99.33429382 2.70915592 C93.5231774 2.71723813 87.71214319 2.72103604 81.90101601 2.71827881 C75.64849465 2.71579802 69.39610827 2.72546147 63.14360237 2.73828697 C60.42273124 2.73281245 60.42273124 2.73281245 57.64689302 2.72722733 C38.86588864 2.79403022 26.6190146 6.74906687 13 20 C9.45966821 23.83535944 7.96926259 26.07684352 6 31 C4.68441487 33.34338601 3.35148588 35.67713364 2 38 C1.34 39.32 0.68 40.64 0 42 C0 28.14 0 14.28 0 0 Z " fill="#2C2C2C" transform="translate(0,0)"/>
<path d="M0 0 C127.38 0 254.76 0 386 0 C386 2.31 386 4.62 386 7 C258.62 7 131.24 7 0 7 C0 4.69 0 2.38 0 0 Z " fill="#4C4C4C" transform="translate(805,1233)"/>
<path d="M0 0 C1.70518044 -0.00788544 1.70518044 -0.00788544 3.44480896 -0.01593018 C7.21269358 -0.02916335 10.98015775 -0.02038002 14.74804688 -0.01025391 C17.35974204 -0.01227368 19.97143665 -0.0151843 22.58312988 -0.01895142 C28.06084555 -0.02337928 33.53841463 -0.01692865 39.01611328 -0.00292969 C46.0479016 0.01416221 53.07934643 0.00432353 60.11112213 -0.01364708 C65.50533653 -0.02447229 70.89946909 -0.02104433 76.29368591 -0.0132637 C78.88691752 -0.01125821 81.48015649 -0.01373314 84.07337952 -0.02070236 C87.69365199 -0.02829586 91.31336323 -0.0167414 94.93359375 0 C96.99637573 0.00238678 99.05915771 0.00477356 101.18444824 0.00723267 C105.96679688 0.38818359 105.96679688 0.38818359 108.96679688 3.38818359 C109.36523438 7.07568359 109.36523438 7.07568359 109.34179688 11.38818359 C109.35339844 13.52287109 109.35339844 13.52287109 109.36523438 15.70068359 C108.96679688 19.38818359 108.96679688 19.38818359 105.96679688 22.38818359 C101.18444824 22.76913452 101.18444824 22.76913452 94.93359375 22.77636719 C93.22841331 22.78425262 93.22841331 22.78425262 91.48878479 22.79229736 C87.72090017 22.80553054 83.953436 22.7967472 80.18554688 22.78662109 C77.57385171 22.78864087 74.9621571 22.79155149 72.35046387 22.7953186 C66.8727482 22.79974647 61.39517912 22.79329584 55.91748047 22.77929688 C48.88569215 22.76220498 41.85424732 22.77204366 34.82247162 22.79001427 C29.42825722 22.80083948 24.03412466 22.79741152 18.63990784 22.78963089 C16.04667623 22.7876254 13.45343726 22.79010033 10.86021423 22.79706955 C7.23994176 22.80466304 3.62023052 22.79310858 0 22.77636719 C-2.06278198 22.77398041 -4.12556396 22.77159363 -6.25085449 22.76913452 C-11.03320312 22.38818359 -11.03320312 22.38818359 -14.03320312 19.38818359 C-14.43164062 15.70068359 -14.43164062 15.70068359 -14.40820312 11.38818359 C-14.4159375 9.96505859 -14.42367187 8.54193359 -14.43164062 7.07568359 C-13.50434262 -1.50636855 -7.08976938 0.00820335 0 0 Z " fill="#282828" transform="translate(989.033203125,42.61181640625)"/>
<path d="M0 0 C1.70518044 -0.00788544 1.70518044 -0.00788544 3.44480896 -0.01593018 C7.21269358 -0.02916335 10.98015775 -0.02038002 14.74804688 -0.01025391 C17.35974204 -0.01227368 19.97143665 -0.0151843 22.58312988 -0.01895142 C28.06084555 -0.02337928 33.53841463 -0.01692865 39.01611328 -0.00292969 C46.0479016 0.01416221 53.07934643 0.00432353 60.11112213 -0.01364708 C65.50533653 -0.02447229 70.89946909 -0.02104433 76.29368591 -0.0132637 C78.88691752 -0.01125821 81.48015649 -0.01373314 84.07337952 -0.02070236 C87.69365199 -0.02829586 91.31336323 -0.0167414 94.93359375 0 C96.99637573 0.00238678 99.05915771 0.00477356 101.18444824 0.00723267 C105.96679688 0.38818359 105.96679688 0.38818359 108.96679688 3.38818359 C109.36523438 7.07568359 109.36523438 7.07568359 109.34179688 11.38818359 C109.35339844 13.52287109 109.35339844 13.52287109 109.36523438 15.70068359 C108.96679688 19.38818359 108.96679688 19.38818359 105.96679688 22.38818359 C101.18444824 22.76913452 101.18444824 22.76913452 94.93359375 22.77636719 C93.22841331 22.78425262 93.22841331 22.78425262 91.48878479 22.79229736 C87.72090017 22.80553054 83.953436 22.7967472 80.18554688 22.78662109 C77.57385171 22.78864087 74.9621571 22.79155149 72.35046387 22.7953186 C66.8727482 22.79974647 61.39517912 22.79329584 55.91748047 22.77929688 C48.88569215 22.76220498 41.85424732 22.77204366 34.82247162 22.79001427 C29.42825722 22.80083948 24.03412466 22.79741152 18.63990784 22.78963089 C16.04667623 22.7876254 13.45343726 22.79010033 10.86021423 22.79706955 C7.23994176 22.80466304 3.62023052 22.79310858 0 22.77636719 C-2.06278198 22.77398041 -4.12556396 22.77159363 -6.25085449 22.76913452 C-11.03320312 22.38818359 -11.03320312 22.38818359 -14.03320312 19.38818359 C-14.43164062 15.70068359 -14.43164062 15.70068359 -14.40820312 11.38818359 C-14.4159375 9.96505859 -14.42367187 8.54193359 -14.43164062 7.07568359 C-13.50434262 -1.50636855 -7.08976938 0.00820335 0 0 Z " fill="#282828" transform="translate(838.033203125,42.61181640625)"/>
<path d="M0 0 C1.70518044 -0.00788544 1.70518044 -0.00788544 3.44480896 -0.01593018 C7.21269358 -0.02916335 10.98015775 -0.02038002 14.74804688 -0.01025391 C17.35974204 -0.01227368 19.97143665 -0.0151843 22.58312988 -0.01895142 C28.06084555 -0.02337928 33.53841463 -0.01692865 39.01611328 -0.00292969 C46.0479016 0.01416221 53.07934643 0.00432353 60.11112213 -0.01364708 C65.50533653 -0.02447229 70.89946909 -0.02104433 76.29368591 -0.0132637 C78.88691752 -0.01125821 81.48015649 -0.01373314 84.07337952 -0.02070236 C87.69365199 -0.02829586 91.31336323 -0.0167414 94.93359375 0 C96.99637573 0.00238678 99.05915771 0.00477356 101.18444824 0.00723267 C105.96679688 0.38818359 105.96679688 0.38818359 108.96679688 3.38818359 C109.36523438 7.07568359 109.36523438 7.07568359 109.34179688 11.38818359 C109.35339844 13.52287109 109.35339844 13.52287109 109.36523438 15.70068359 C108.96679688 19.38818359 108.96679688 19.38818359 105.96679688 22.38818359 C101.18444824 22.76913452 101.18444824 22.76913452 94.93359375 22.77636719 C93.22841331 22.78425262 93.22841331 22.78425262 91.48878479 22.79229736 C87.72090017 22.80553054 83.953436 22.7967472 80.18554688 22.78662109 C77.57385171 22.78864087 74.9621571 22.79155149 72.35046387 22.7953186 C66.8727482 22.79974647 61.39517912 22.79329584 55.91748047 22.77929688 C48.88569215 22.76220498 41.85424732 22.77204366 34.82247162 22.79001427 C29.42825722 22.80083948 24.03412466 22.79741152 18.63990784 22.78963089 C16.04667623 22.7876254 13.45343726 22.79010033 10.86021423 22.79706955 C7.23994176 22.80466304 3.62023052 22.79310858 0 22.77636719 C-2.06278198 22.77398041 -4.12556396 22.77159363 -6.25085449 22.76913452 C-11.03320312 22.38818359 -11.03320312 22.38818359 -14.03320312 19.38818359 C-14.43164062 15.70068359 -14.43164062 15.70068359 -14.40820312 11.38818359 C-14.4159375 9.96505859 -14.42367187 8.54193359 -14.43164062 7.07568359 C-13.50434262 -1.50636855 -7.08976938 0.00820335 0 0 Z " fill="#282828" transform="translate(687.033203125,42.61181640625)"/>
<path d="M0 0 C1.70518044 -0.00788544 1.70518044 -0.00788544 3.44480896 -0.01593018 C7.21269358 -0.02916335 10.98015775 -0.02038002 14.74804688 -0.01025391 C17.35974204 -0.01227368 19.97143665 -0.0151843 22.58312988 -0.01895142 C28.06084555 -0.02337928 33.53841463 -0.01692865 39.01611328 -0.00292969 C46.0479016 0.01416221 53.07934643 0.00432353 60.11112213 -0.01364708 C65.50533653 -0.02447229 70.89946909 -0.02104433 76.29368591 -0.0132637 C78.88691752 -0.01125821 81.48015649 -0.01373314 84.07337952 -0.02070236 C87.69365199 -0.02829586 91.31336323 -0.0167414 94.93359375 0 C96.99637573 0.00238678 99.05915771 0.00477356 101.18444824 0.00723267 C105.96679688 0.38818359 105.96679688 0.38818359 108.96679688 3.38818359 C109.36523438 7.07568359 109.36523438 7.07568359 109.34179688 11.38818359 C109.35339844 13.52287109 109.35339844 13.52287109 109.36523438 15.70068359 C108.96679688 19.38818359 108.96679688 19.38818359 105.96679688 22.38818359 C101.18444824 22.76913452 101.18444824 22.76913452 94.93359375 22.77636719 C93.22841331 22.78425262 93.22841331 22.78425262 91.48878479 22.79229736 C87.72090017 22.80553054 83.953436 22.7967472 80.18554688 22.78662109 C77.57385171 22.78864087 74.9621571 22.79155149 72.35046387 22.7953186 C66.8727482 22.79974647 61.39517912 22.79329584 55.91748047 22.77929688 C48.88569215 22.76220498 41.85424732 22.77204366 34.82247162 22.79001427 C29.42825722 22.80083948 24.03412466 22.79741152 18.63990784 22.78963089 C16.04667623 22.7876254 13.45343726 22.79010033 10.86021423 22.79706955 C7.23994176 22.80466304 3.62023052 22.79310858 0 22.77636719 C-2.06278198 22.77398041 -4.12556396 22.77159363 -6.25085449 22.76913452 C-11.03320312 22.38818359 -11.03320312 22.38818359 -14.03320312 19.38818359 C-14.43164062 15.70068359 -14.43164062 15.70068359 -14.40820312 11.38818359 C-14.4159375 9.96505859 -14.42367187 8.54193359 -14.43164062 7.07568359 C-13.50434262 -1.50636855 -7.08976938 0.00820335 0 0 Z " fill="#282828" transform="translate(536.033203125,42.61181640625)"/>
<path d="M0 0 C1.70518044 -0.00788544 1.70518044 -0.00788544 3.44480896 -0.01593018 C7.21269358 -0.02916335 10.98015775 -0.02038002 14.74804688 -0.01025391 C17.35974204 -0.01227368 19.97143665 -0.0151843 22.58312988 -0.01895142 C28.06084555 -0.02337928 33.53841463 -0.01692865 39.01611328 -0.00292969 C46.0479016 0.01416221 53.07934643 0.00432353 60.11112213 -0.01364708 C65.50533653 -0.02447229 70.89946909 -0.02104433 76.29368591 -0.0132637 C78.88691752 -0.01125821 81.48015649 -0.01373314 84.07337952 -0.02070236 C87.69365199 -0.02829586 91.31336323 -0.0167414 94.93359375 0 C96.99637573 0.00238678 99.05915771 0.00477356 101.18444824 0.00723267 C105.96679688 0.38818359 105.96679688 0.38818359 108.96679688 3.38818359 C109.36523438 7.07568359 109.36523438 7.07568359 109.34179688 11.38818359 C109.35339844 13.52287109 109.35339844 13.52287109 109.36523438 15.70068359 C108.96679688 19.38818359 108.96679688 19.38818359 105.96679688 22.38818359 C101.18444824 22.76913452 101.18444824 22.76913452 94.93359375 22.77636719 C93.22841331 22.78425262 93.22841331 22.78425262 91.48878479 22.79229736 C87.72090017 22.80553054 83.953436 22.7967472 80.18554688 22.78662109 C77.57385171 22.78864087 74.9621571 22.79155149 72.35046387 22.7953186 C66.8727482 22.79974647 61.39517912 22.79329584 55.91748047 22.77929688 C48.88569215 22.76220498 41.85424732 22.77204366 34.82247162 22.79001427 C29.42825722 22.80083948 24.03412466 22.79741152 18.63990784 22.78963089 C16.04667623 22.7876254 13.45343726 22.79010033 10.86021423 22.79706955 C7.23994176 22.80466304 3.62023052 22.79310858 0 22.77636719 C-2.06278198 22.77398041 -4.12556396 22.77159363 -6.25085449 22.76913452 C-11.03320312 22.38818359 -11.03320312 22.38818359 -14.03320312 19.38818359 C-14.43164062 15.70068359 -14.43164062 15.70068359 -14.40820312 11.38818359 C-14.4159375 9.96505859 -14.42367188 8.54193359 -14.43164062 7.07568359 C-13.50434262 -1.50636855 -7.08976938 0.00820335 0 0 Z " fill="#282828" transform="translate(385.033203125,42.61181640625)"/>
<path d="M0 0 C1.70518044 -0.00788544 1.70518044 -0.00788544 3.44480896 -0.01593018 C7.21269358 -0.02916335 10.98015775 -0.02038002 14.74804688 -0.01025391 C17.35974204 -0.01227368 19.97143665 -0.0151843 22.58312988 -0.01895142 C28.06084555 -0.02337928 33.53841463 -0.01692865 39.01611328 -0.00292969 C46.0479016 0.01416221 53.07934643 0.00432353 60.11112213 -0.01364708 C65.50533653 -0.02447229 70.89946909 -0.02104433 76.29368591 -0.0132637 C78.88691752 -0.01125821 81.48015649 -0.01373314 84.07337952 -0.02070236 C87.69365199 -0.02829586 91.31336323 -0.0167414 94.93359375 0 C96.99637573 0.00238678 99.05915771 0.00477356 101.18444824 0.00723267 C105.96679688 0.38818359 105.96679688 0.38818359 108.96679688 3.38818359 C109.36523438 7.07568359 109.36523438 7.07568359 109.34179688 11.38818359 C109.35339844 13.52287109 109.35339844 13.52287109 109.36523438 15.70068359 C108.96679688 19.38818359 108.96679688 19.38818359 105.96679688 22.38818359 C101.18444824 22.76913452 101.18444824 22.76913452 94.93359375 22.77636719 C93.22841331 22.78425262 93.22841331 22.78425262 91.48878479 22.79229736 C87.72090017 22.80553054 83.953436 22.7967472 80.18554688 22.78662109 C77.57385171 22.78864087 74.9621571 22.79155149 72.35046387 22.7953186 C66.8727482 22.79974647 61.39517912 22.79329584 55.91748047 22.77929688 C48.88569215 22.76220498 41.85424732 22.77204366 34.82247162 22.79001427 C29.42825722 22.80083948 24.03412466 22.79741152 18.63990784 22.78963089 C16.04667623 22.7876254 13.45343726 22.79010033 10.86021423 22.79706955 C7.23994176 22.80466304 3.62023052 22.79310858 0 22.77636719 C-2.06278198 22.77398041 -4.12556396 22.77159363 -6.25085449 22.76913452 C-11.03320312 22.38818359 -11.03320312 22.38818359 -14.03320312 19.38818359 C-14.43164062 15.70068359 -14.43164062 15.70068359 -14.40820312 11.38818359 C-14.4159375 9.96505859 -14.42367187 8.54193359 -14.43164062 7.07568359 C-13.50434262 -1.50636855 -7.08976938 0.00820335 0 0 Z " fill="#282828" transform="translate(234.033203125,42.61181640625)"/>
<path d="M0 0 C1.70518044 -0.00788544 1.70518044 -0.00788544 3.44480896 -0.01593018 C7.21269358 -0.02916335 10.98015775 -0.02038002 14.74804688 -0.01025391 C17.35974204 -0.01227368 19.97143665 -0.0151843 22.58312988 -0.01895142 C28.06084555 -0.02337928 33.53841463 -0.01692865 39.01611328 -0.00292969 C46.0479016 0.01416221 53.07934643 0.00432353 60.11112213 -0.01364708 C65.50533653 -0.02447229 70.89946909 -0.02104433 76.29368591 -0.0132637 C78.88691752 -0.01125821 81.48015649 -0.01373314 84.07337952 -0.02070236 C87.69365199 -0.02829586 91.31336323 -0.0167414 94.93359375 0 C96.99637573 0.00238678 99.05915771 0.00477356 101.18444824 0.00723267 C105.96679688 0.38818359 105.96679688 0.38818359 108.96679688 3.38818359 C109.36523438 7.07568359 109.36523438 7.07568359 109.34179688 11.38818359 C109.35339844 13.52287109 109.35339844 13.52287109 109.36523438 15.70068359 C108.96679688 19.38818359 108.96679688 19.38818359 105.96679688 22.38818359 C101.18444824 22.76913452 101.18444824 22.76913452 94.93359375 22.77636719 C93.22841331 22.78425262 93.22841331 22.78425262 91.48878479 22.79229736 C87.72090017 22.80553054 83.953436 22.7967472 80.18554688 22.78662109 C77.57385171 22.78864087 74.9621571 22.79155149 72.35046387 22.7953186 C66.8727482 22.79974647 61.39517912 22.79329584 55.91748047 22.77929688 C48.88569215 22.76220498 41.85424732 22.77204366 34.82247162 22.79001427 C29.42825722 22.80083948 24.03412466 22.79741152 18.63990784 22.78963089 C16.04667623 22.7876254 13.45343726 22.79010033 10.86021423 22.79706955 C7.23994176 22.80466304 3.62023052 22.79310858 0 22.77636719 C-2.06278198 22.77398041 -4.12556396 22.77159363 -6.25085449 22.76913452 C-11.03320312 22.38818359 -11.03320312 22.38818359 -14.03320312 19.38818359 C-14.43164062 15.70068359 -14.43164062 15.70068359 -14.40820312 11.38818359 C-14.4159375 9.96505859 -14.42367187 8.54193359 -14.43164062 7.07568359 C-13.50434262 -1.50636855 -7.08976938 0.00820335 0 0 Z " fill="#282828" transform="translate(83.033203125,42.61181640625)"/>
<path d="M0 0 C14.19 0 28.38 0 43 0 C40 3 40 3 35.5 4.75 C24.08640293 9.4191988 15.38467749 16.15376334 8 26 C7.01 28.475 7.01 28.475 6 31 C4.68441487 33.34338601 3.35148588 35.67713364 2 38 C1.34 39.32 0.68 40.64 0 42 C0 28.14 0 14.28 0 0 Z " fill="#171717" transform="translate(0,0)"/>
<path d="M0 0 C17.08984375 -0.09765625 17.08984375 -0.09765625 22 0 C23 1 23 1 23.09765625 5.69140625 C23.06510417 11.12760417 23.03255208 16.56380208 23 22 C15.41 22 7.82 22 0 22 C0 14.74 0 7.48 0 0 Z " fill="#D3D3D3" transform="translate(16,880)"/>
<path d="M0 0 C17.08984375 -0.09765625 17.08984375 -0.09765625 22 0 C23 1 23 1 23.09765625 5.69140625 C23.06510417 11.12760417 23.03255208 16.56380208 23 22 C15.41 22 7.82 22 0 22 C0 14.74 0 7.48 0 0 Z " fill="#D3D3D3" transform="translate(16,86)"/>
<path d="M0 0 C3.04541016 0.01740234 3.04541016 0.01740234 6.15234375 0.03515625 C8.18519531 0.04417969 10.21804687 0.05320312 12.3125 0.0625 C13.88902344 0.07410156 15.46554688 0.08570313 17.08984375 0.09765625 C17.11667505 3.57678183 17.13616146 7.05596484 17.15234375 10.53515625 C17.16394531 12.47261719 17.17554687 14.41007812 17.1875 16.40625 C17.08984375 21.09765625 17.08984375 21.09765625 16.08984375 22.09765625 C12.403014 22.17098222 8.7148424 22.18122767 5.02734375 22.16015625 C2.99449219 22.15113281 0.96164063 22.14210938 -1.1328125 22.1328125 C-2.70933594 22.12121094 -4.28585938 22.10960937 -5.91015625 22.09765625 C-5.93698755 18.61853067 -5.95647396 15.13934766 -5.97265625 11.66015625 C-5.98425781 9.72269531 -5.99585938 7.78523438 -6.0078125 5.7890625 C-5.88974581 0.11713894 -5.88974581 0.11713894 0 0 Z " fill="#D3D3D3" transform="translate(21.91015625,312.90234375)"/>
<path d="M0 0 C7.26 0 14.52 0 22 0 C22 7.26 22 14.52 22 22 C14.74 22 7.48 22 0 22 C0 14.74 0 7.48 0 0 Z " fill="#D5D5D5" transform="translate(16,388)"/>
<path d="M0 0 C7.26 0 14.52 0 22 0 C22 7.26 22 14.52 22 22 C14.74 22 7.48 22 0 22 C0 14.74 0 7.48 0 0 Z " fill="#D6D6D6" transform="translate(16,237)"/>
<path d="M0 0 C7.26 0 14.52 0 22 0 C22 7.26 22 14.52 22 22 C5.69140625 22.09765625 5.69140625 22.09765625 1 22 C0 21 0 21 -0.09765625 16.30859375 C-0.06510417 10.87239583 -0.03255208 5.43619792 0 0 Z " fill="#D6D6D6" transform="translate(16,124)"/>
<path d="M0 0 C7.26 0 14.52 0 22 0 C22 6.93 22 13.86 22 21 C14.74 21 7.48 21 0 21 C0 14.07 0 7.14 0 0 Z " fill="#DADADA" transform="translate(16,994)"/>
<path d="M0 0 C7.26 0 14.52 0 22 0 C22 6.93 22 13.86 22 21 C14.74 21 7.48 21 0 21 C0 14.07 0 7.14 0 0 Z " fill="#DADADA" transform="translate(16,956)"/>
<path d="M0 0 C7.26 0 14.52 0 22 0 C22 6.93 22 13.86 22 21 C14.74 21 7.48 21 0 21 C0 14.07 0 7.14 0 0 Z " fill="#D9D9D9" transform="translate(16,918)"/>
<path d="M0 0 C7.26 0 14.52 0 22 0 C22 6.93 22 13.86 22 21 C14.74 21 7.48 21 0 21 C0 14.07 0 7.14 0 0 Z " fill="#DADADA" transform="translate(16,805)"/>
<path d="M0 0 C7.26 0 14.52 0 22 0 C22 6.93 22 13.86 22 21 C14.74 21 7.48 21 0 21 C0 14.07 0 7.14 0 0 Z " fill="#D9D9D9" transform="translate(16,729)"/>
<path d="M0 0 C7.26 0 14.52 0 22 0 C22 6.93 22 13.86 22 21 C14.74 21 7.48 21 0 21 C0 14.07 0 7.14 0 0 Z " fill="#E3E3E3" transform="translate(16,691)"/>
<path d="M0 0 C7.26 0 14.52 0 22 0 C22 6.93 22 13.86 22 21 C14.74 21 7.48 21 0 21 C0 14.07 0 7.14 0 0 Z " fill="#DADADA" transform="translate(16,616)"/>
<path d="M0 0 C7.26 0 14.52 0 22 0 C22 6.93 22 13.86 22 21 C14.74 21 7.48 21 0 21 C0 14.07 0 7.14 0 0 Z " fill="#D9D9D9" transform="translate(16,578)"/>
<path d="M0 0 C7.26 0 14.52 0 22 0 C22 6.93 22 13.86 22 21 C14.74 21 7.48 21 0 21 C0 14.07 0 7.14 0 0 Z " fill="#DADADA" transform="translate(16,502)"/>
<path d="M0 0 C7.26 0 14.52 0 22 0 C22 6.93 22 13.86 22 21 C14.74 21 7.48 21 0 21 C0 14.07 0 7.14 0 0 Z " fill="#DADADA" transform="translate(16,351)"/>
<path d="M0 0 C7.26 0 14.52 0 22 0 C22 6.93 22 13.86 22 21 C14.74 21 7.48 21 0 21 C0 14.07 0 7.14 0 0 Z " fill="#DADADA" transform="translate(16,200)"/>
<path d="M0 0 C7.26 0 14.52 0 22 0 C22 6.93 22 13.86 22 21 C14.74 21 7.48 21 0 21 C0 14.07 0 7.14 0 0 Z " fill="#DADADA" transform="translate(16,162)"/>
<path d="M0 0 C6.93 0 13.86 0 21 0 C21 6.93 21 13.86 21 21 C14.07 21 7.14 21 0 21 C0 14.07 0 7.14 0 0 Z " fill="#DCDCDC" transform="translate(17,843)"/>
<path d="M0 0 C7.26 0 14.52 0 22 0 C22 6.6 22 13.2 22 20 C14.74 20 7.48 20 0 20 C0 13.4 0 6.8 0 0 Z " fill="#DCDCDC" transform="translate(16,465)"/>
<path d="M0 0 C6.93 0 13.86 0 21 0 C21 6.6 21 13.2 21 20 C14.07 20 7.14 20 0 20 C0 13.4 0 6.8 0 0 Z " fill="#DEDEDE" transform="translate(17,767)"/>
<path d="M0 0 C6.93 0 13.86 0 21 0 C21 6.6 21 13.2 21 20 C14.07 20 7.14 20 0 20 C0 13.4 0 6.8 0 0 Z " fill="#DEDEDE" transform="translate(17,427)"/>
<path d="M0 0 C6.93 0 13.86 0 21 0 C21 6.6 21 13.2 21 20 C14.07 20 7.14 20 0 20 C0 13.4 0 6.8 0 0 Z " fill="#DEDEDE" transform="translate(17,276)"/>
<path d="M0 0 C6.6 0 13.2 0 20 0 C20 6.6 20 13.2 20 20 C13.4 20 6.8 20 0 20 C0 13.4 0 6.8 0 0 Z " fill="#E1E1E1" transform="translate(17,654)"/>
<path d="M0 0 C6.6 0 13.2 0 20 0 C20 6.6 20 13.2 20 20 C13.4 20 6.8 20 0 20 C0 13.4 0 6.8 0 0 Z " fill="#E0E0E0" transform="translate(17,541)"/>
<path d="M0 0 C6.6 0 13.2 0 20 0 C20 6.6 20 13.2 20 20 C13.4 20 6.8 20 0 20 C0 13.4 0 6.8 0 0 Z " fill="#E0E0E0" transform="translate(17,49)"/>
<path d="M0 0 C2.1140625 0.00257813 4.228125 0.00515625 6.40625 0.0078125 C8.5203125 0.00523437 10.634375 0.00265625 12.8125 0 C17.90625 0.1328125 17.90625 0.1328125 18.90625 1.1328125 C19.00617082 4.96506985 19.03592507 8.79925557 19.03125 12.6328125 C19.03382812 14.746875 19.03640625 16.8609375 19.0390625 19.0390625 C18.90625 24.1328125 18.90625 24.1328125 17.90625 25.1328125 C14.07399265 25.23273332 10.23980693 25.26248757 6.40625 25.2578125 C4.2921875 25.26039063 2.178125 25.26296875 0 25.265625 C-5.09375 25.1328125 -5.09375 25.1328125 -6.09375 24.1328125 C-6.19367082 20.30055515 -6.22342507 16.46636943 -6.21875 12.6328125 C-6.22132812 10.51875 -6.22390625 8.4046875 -6.2265625 6.2265625 C-6.06833894 0.15822356 -6.06833894 0.15822356 0 0 Z M-4.09375 2.1328125 C-4.09375 8.7328125 -4.09375 15.3328125 -4.09375 22.1328125 C2.83625 22.1328125 9.76625 22.1328125 16.90625 22.1328125 C16.90625 15.5328125 16.90625 8.9328125 16.90625 2.1328125 C9.97625 2.1328125 3.04625 2.1328125 -4.09375 2.1328125 Z " fill="#7B7B7B" transform="translate(21.09375,273.8671875)"/>
<path d="M0 0 C0.66 0 1.32 0 2 0 C2.350625 1.77375 2.70125 3.5475 3.0625 5.375 C5.07162486 12.2449108 7.66611565 16.37355365 12 22 C13.98 24.97 13.98 24.97 16 28 C10.72 28 5.44 28 0 28 C0 18.76 0 9.52 0 0 Z " fill="#1A1A1A" transform="translate(0,1212)"/>
<path d="M0 0 C7.92 0 15.84 0 24 0 C24 7.92 24 15.84 24 24 C6.12890625 24.09765625 6.12890625 24.09765625 1 24 C0 23 0 23 -0.09765625 17.87109375 C-0.06510417 11.9140625 -0.03255208 5.95703125 0 0 Z M2 2 C2 8.6 2 15.2 2 22 C8.6 22 15.2 22 22 22 C22 15.4 22 8.8 22 2 C15.4 2 8.8 2 2 2 Z " fill="#8C8C8C" transform="translate(15,47)"/>
<path d="M0 0 C7.92 0 15.84 0 24 0 C24.09765625 17.87109375 24.09765625 17.87109375 24 23 C23 24 23 24 18.125 24.1328125 C16.10375 24.13023437 14.0825 24.12765625 12 24.125 C9.97875 24.12757813 7.9575 24.13015625 5.875 24.1328125 C1 24 1 24 0 23 C-0.14599384 15.33240357 -0.04190898 7.66934352 0 0 Z M2 2 C2 8.6 2 15.2 2 22 C8.6 22 15.2 22 22 22 C22 15.4 22 8.8 22 2 C15.4 2 8.8 2 2 2 Z " fill="#8A8A8A" transform="translate(15,652)"/>
<path d="M0 0 C17.87109375 -0.09765625 17.87109375 -0.09765625 23 0 C24 1 24 1 24.09765625 5.91015625 C24.06510417 11.60677083 24.03255208 17.30338542 24 23 C16.08 23 8.16 23 0 23 C0 15.41 0 7.82 0 0 Z M2 2 C2 8.6 2 15.2 2 22 C8.6 22 15.2 22 22 22 C22 15.4 22 8.8 22 2 C15.4 2 8.8 2 2 2 Z " fill="#949494" transform="translate(15,539)"/>
<path d="M0 0 C2.1140625 0.00257813 4.228125 0.00515625 6.40625 0.0078125 C8.5203125 0.00523437 10.634375 0.00265625 12.8125 0 C17.90625 0.1328125 17.90625 0.1328125 18.90625 1.1328125 C19.00611256 4.79835585 19.03592717 8.46591208 19.03125 12.1328125 C19.03511719 15.1646875 19.03511719 15.1646875 19.0390625 18.2578125 C18.90625 23.1328125 18.90625 23.1328125 17.90625 24.1328125 C13.88603297 24.20622771 9.8645822 24.21636398 5.84375 24.1953125 C3.62527344 24.18628906 1.40679687 24.17726563 -0.87890625 24.16796875 C-3.46025391 24.15056641 -3.46025391 24.15056641 -6.09375 24.1328125 C-6.12057734 20.32034997 -6.14006585 16.50783507 -6.15625 12.6953125 C-6.16785156 10.57222656 -6.17945313 8.44914063 -6.19140625 6.26171875 C-6.07519687 0.15840237 -6.07519687 0.15840237 0 0 Z M-5.09375 1.1328125 C-5.09375 8.0628125 -5.09375 14.9928125 -5.09375 22.1328125 C2.16625 22.1328125 9.42625 22.1328125 16.90625 22.1328125 C16.90625 15.2028125 16.90625 8.2728125 16.90625 1.1328125 C9.64625 1.1328125 2.38625 1.1328125 -5.09375 1.1328125 Z " fill="#737373" transform="translate(21.09375,916.8671875)"/>
<path d="M0 0 C2.02125 0.00257813 4.0425 0.00515625 6.125 0.0078125 C8.14625 0.00523437 10.1675 0.00265625 12.25 0 C17.125 0.1328125 17.125 0.1328125 18.125 1.1328125 C18.27086948 8.46712976 18.16692083 15.79666782 18.125 23.1328125 C10.205 23.1328125 2.285 23.1328125 -5.875 23.1328125 C-5.97265625 6.04296875 -5.97265625 6.04296875 -5.875 1.1328125 C-4.875 0.1328125 -4.875 0.1328125 0 0 Z M-3.875 1.1328125 C-3.875 7.7328125 -3.875 14.3328125 -3.875 21.1328125 C3.055 21.1328125 9.985 21.1328125 17.125 21.1328125 C17.125 14.5328125 17.125 7.9328125 17.125 1.1328125 C10.195 1.1328125 3.265 1.1328125 -3.875 1.1328125 Z " fill="#8D8D8D" transform="translate(20.875,425.8671875)"/>
<path d="M0 0 C7.26 0 14.52 0 22 0 C22 6.93 22 13.86 22 21 C14.74 21 7.48 21 0 21 C0 14.07 0 7.14 0 0 Z M2 2 C2 7.94 2 13.88 2 20 C8.27 20 14.54 20 21 20 C21 14.06 21 8.12 21 2 C14.73 2 8.46 2 2 2 Z " fill="#BDBDBD" transform="translate(16,691)"/>
</svg>
